<?xml version="1.0" standalone="no"?>
<!DOCTYPE svg PUBLIC "-//W3C//DTD SVG 20010904//EN"
 "http://www.w3.org/TR/2001/REC-SVG-20010904/DTD/svg10.dtd">
<svg version="1.0" xmlns="http://www.w3.org/2000/svg"
 width="600.000000pt" height="830.000000pt" viewBox="0 0 600.000000 830.000000"
 preserveAspectRatio="xMidYMid meet">

<g transform="translate(0.000000,830.000000) scale(0.100000,-0.100000)"
fill="#000000" stroke="none">
<path d="M5243 7726 c-4 -8 -26 -16 -48 -18 -29 -2 -40 -8 -41 -21 -1 -12 -1
-13 3 -2 3 10 17 15 43 15 29 0 42 5 50 20 12 23 5 28 -7 6z"/>
<path d="M5290 7728 c0 -15 8 -18 53 -16 l52 1 -45 4 c-24 3 -48 10 -52 16 -5
8 -8 6 -8 -5z"/>
<path d="M5625 7709 c-16 -10 -25 -19 -19 -19 7 0 22 9 35 20 30 24 23 24 -16
-1z"/>
<path d="M5690 7720 c13 -9 12 -13 -7 -29 -26 -22 -21 -58 8 -63 26 -4 25 -22
-1 -26 -26 -4 -26 -28 0 -42 17 -9 22 -7 31 17 6 15 15 50 22 76 10 43 13 48
34 44 13 -2 23 0 23 5 0 5 -12 8 -27 6 -22 -2 -29 -10 -36 -39 -7 -31 -12 -36
-30 -31 -33 8 -39 25 -15 43 22 17 20 49 -4 49 -9 0 -9 -3 2 -10z"/>
<path d="M5380 7687 c-8 -7 -16 -20 -16 -29 -1 -14 6 -18 28 -18 23 0 29 -4
24 -15 -3 -8 -1 -15 4 -15 6 0 10 9 10 20 0 15 -7 20 -25 20 -27 0 -33 18 -13
38 16 16 7 15 -12 -1z"/>
<path d="M3377 7618 c86 -135 140 -273 166 -430 9 -59 15 -75 26 -69 10 7 7
29 -18 115 -35 123 -73 232 -97 279 -21 40 -113 177 -119 177 -3 0 16 -33 42
-72z"/>
<path d="M5575 7680 c-9 -14 13 -40 34 -41 9 -1 0 -4 -19 -8 -42 -7 -56 -45
-20 -56 l21 -7 -21 -34 c-11 -20 -20 -41 -20 -49 0 -21 31 -27 51 -9 18 16 19
16 19 -20 0 -41 20 -57 46 -35 8 7 25 14 38 15 12 1 42 7 66 14 34 9 45 9 51
-2 6 -9 9 -9 9 -1 0 22 -19 24 -76 9 -31 -8 -62 -12 -69 -10 -7 3 -15 -2 -18
-10 -4 -9 -13 -16 -22 -16 -11 0 -15 12 -15 53 l0 52 -23 -29 c-14 -17 -29
-26 -35 -22 -17 10 -15 24 6 54 32 46 34 62 10 59 -14 -1 -24 4 -26 16 -3 14
4 17 33 17 29 0 36 3 33 17 -2 10 -12 18 -23 18 -13 0 -20 6 -19 18 2 19 -2
22 -11 7z"/>
<path d="M5303 7673 c9 -2 23 -2 30 0 6 3 -1 5 -18 5 -16 0 -22 -2 -12 -5z"/>
<path d="M5791 7664 c0 -11 3 -14 6 -6 3 7 2 16 -1 19 -3 4 -6 -2 -5 -13z"/>
<path d="M5160 7653 c0 -7 -6 -13 -14 -13 -8 0 -17 -3 -19 -7 -3 -5 20 -6 51
-3 39 3 47 5 27 8 -16 2 -33 9 -37 15 -6 9 -8 9 -8 0z"/>
<path d="M5759 7564 l-26 -76 30 6 c39 8 39 8 27 40 -5 15 -10 34 -10 42 0 20
38 17 44 -3 4 -14 4 -14 3 2 -1 12 -11 21 -24 23 -15 2 -19 8 -16 23 12 45 -4
13 -28 -57z m24 -38 c3 -8 -2 -16 -14 -19 -21 -6 -22 -5 -13 17 8 20 20 21 27
2z"/>
<path d="M3286 7597 c3 -10 9 -15 12 -12 3 3 0 11 -7 18 -10 9 -11 8 -5 -6z"/>
<path d="M5283 7603 c9 -2 23 -2 30 0 6 3 -1 5 -18 5 -16 0 -22 -2 -12 -5z"/>
<path d="M5367 7534 c1 -61 5 -78 20 -89 15 -11 16 -16 5 -27 -10 -10 -23 -8
-67 16 -45 23 -58 26 -70 16 -8 -7 -32 -18 -52 -26 -23 -8 -30 -13 -18 -14 11
0 35 9 54 21 l34 21 49 -27 c30 -16 56 -24 68 -20 24 8 26 28 5 45 -19 16 -21
146 -2 153 6 3 3 6 -8 6 -18 1 -20 -5 -18 -75z"/>
<path d="M5143 7593 c26 -4 27 -6 27 -65 0 -46 -4 -64 -17 -73 -16 -12 -15
-13 7 -8 24 4 25 6 22 79 l-4 74 -31 -1 c-31 -2 -31 -2 -4 -6z"/>
<path d="M5830 7545 c0 -5 5 -17 10 -25 5 -8 10 -10 10 -5 0 6 -5 17 -10 25
-5 8 -10 11 -10 5z"/>
<path d="M5238 7533 c12 -2 32 -2 45 0 12 2 2 4 -23 4 -25 0 -35 -2 -22 -4z"/>
<path d="M2957 7435 c3 -64 -1 -138 -11 -204 -9 -57 -14 -106 -12 -108 5 -6
27 115 35 198 l7 74 8 -60 c11 -90 16 -99 11 -20 -3 39 -13 104 -24 145 l-18
75 4 -100z"/>
<path d="M2670 7464 c0 -32 -5 -92 -10 -133 -6 -41 -8 -76 -5 -79 2 -2 7 19
11 47 3 28 11 48 16 45 9 -6 1 165 -8 175 -2 2 -4 -22 -4 -55z"/>
<path d="M3201 7512 c-1 -7 4 -32 9 -55 10 -39 29 -168 50 -327 7 -61 8 -59 4
27 -4 106 -30 278 -49 331 -8 21 -14 31 -14 24z"/>
<path d="M5670 7495 c0 -30 6 -32 19 -6 8 14 7 20 -4 25 -11 4 -15 -2 -15 -19z"/>
<path d="M1558 7473 c-42 -46 -57 -78 -31 -69 10 4 2 -8 -18 -26 -19 -18 -28
-27 -19 -20 27 20 30 14 13 -25 -8 -21 -12 -35 -9 -32 18 17 89 136 91 154 1
11 6 28 10 38 11 25 3 21 -37 -20z m7 -42 c-3 -6 -11 -11 -17 -11 -6 0 -6 6 2
15 14 17 26 13 15 -4z"/>
<path d="M2472 7490 c0 -14 2 -19 5 -12 2 6 2 18 0 25 -3 6 -5 1 -5 -13z"/>
<path d="M5238 7493 c12 -2 30 -2 40 0 9 3 -1 5 -23 4 -22 0 -30 -2 -17 -4z"/>
<path d="M5856 7487 c3 -10 9 -15 12 -12 3 3 0 11 -7 18 -10 9 -11 8 -5 -6z"/>
<path d="M2738 7385 c-4 -54 -4 -104 0 -110 4 -5 12 -32 18 -60 l12 -50 0 70
c0 39 -5 111 -12 160 l-12 90 -6 -100z"/>
<path d="M3135 7359 c0 -55 3 -90 6 -77 11 42 20 -4 17 -88 -3 -79 -3 -79 -33
-85 l-30 -7 32 -1 c24 -1 33 -6 36 -23 2 -13 5 24 6 82 1 83 -21 285 -32 296
-1 2 -2 -42 -2 -97z"/>
<path d="M2892 7420 c0 -19 2 -27 5 -17 2 9 2 25 0 35 -3 9 -5 1 -5 -18z"/>
<path d="M5850 7440 c-9 -6 -10 -10 -3 -10 6 0 15 5 18 10 8 12 4 12 -15 0z"/>
<path d="M5140 7420 c0 -5 5 -10 11 -10 5 0 7 5 4 10 -3 6 -8 10 -11 10 -2 0
-4 -4 -4 -10z"/>
<path d="M2251 7374 c0 -11 3 -14 6 -6 3 7 2 16 -1 19 -3 4 -6 -2 -5 -13z"/>
<path d="M3362 7360 c0 -14 2 -19 5 -12 2 6 2 18 0 25 -3 6 -5 1 -5 -13z"/>
<path d="M5175 7343 c-9 -20 -27 -51 -40 -69 -14 -18 -25 -38 -25 -44 0 -16
43 -30 52 -16 12 18 9 31 -4 18 -14 -14 -38 -16 -38 -3 0 5 16 32 35 61 19 29
35 58 35 66 0 8 10 14 21 14 18 0 20 -5 16 -26 -4 -23 -2 -25 22 -19 14 3 45
15 69 27 64 30 104 5 42 -27 -25 -13 -30 -22 -30 -50 l0 -35 43 6 c56 9 63 17
10 12 -40 -3 -43 -2 -43 22 0 17 9 30 31 43 32 18 34 33 7 50 -11 7 -28 4 -60
-11 -55 -27 -74 -28 -81 -2 -9 35 -45 25 -62 -17z"/>
<path d="M5604 7346 c-3 -8 -4 -25 -1 -38 3 -17 5 -15 6 10 1 29 4 33 24 30
18 -3 21 -8 17 -33 -3 -16 -5 -74 -5 -127 0 -71 -3 -98 -12 -98 -6 0 -17 8
-22 18 -6 9 -11 12 -11 6 0 -18 28 -37 44 -31 12 5 14 22 9 90 -5 71 -3 89 13
116 14 23 26 31 49 32 l30 2 -30 4 c-20 3 -33 -1 -43 -14 -13 -17 -14 -17 -12
2 1 11 2 26 1 33 -1 17 -50 15 -57 -2z"/>
<path d="M2893 7290 c0 -30 2 -43 4 -27 2 15 2 39 0 55 -2 15 -4 2 -4 -28z"/>
<path d="M2266 7245 c4 -49 10 -98 15 -110 6 -14 7 -8 4 20 -6 40 -5 40 16
-13 11 -29 23 -52 25 -50 2 2 -6 29 -17 59 -12 30 -27 83 -35 119 l-14 65 6
-90z"/>
<path d="M3373 7295 c0 -22 2 -30 4 -17 2 12 2 30 0 40 -3 9 -5 -1 -4 -23z"/>
<path d="M1369 7293 l-24 -28 28 24 c25 23 32 31 24 31 -2 0 -14 -12 -28 -27z"/>
<path d="M5207 7297 c-3 -8 -3 -25 0 -36 4 -17 13 -21 44 -21 37 0 39 2 39 30
0 28 -2 29 -31 23 -20 -4 -34 -1 -39 6 -5 10 -9 9 -13 -2z"/>
<path d="M1475 7279 c-4 -6 -5 -12 -2 -15 2 -3 7 2 10 11 7 17 1 20 -8 4z"/>
<path d="M5670 7277 c0 -5 26 -5 58 -2 47 6 55 5 45 -6 -22 -23 -16 -49 11
-49 24 0 66 41 66 64 0 6 -6 2 -12 -9 -13 -25 -38 -45 -55 -45 -18 0 -16 20 4
42 17 19 15 19 -50 16 -37 -2 -67 -7 -67 -11z"/>
<path d="M5593 7205 c0 -44 2 -61 4 -37 2 23 2 59 0 80 -2 20 -4 1 -4 -43z"/>
<path d="M3032 7220 c0 -19 2 -27 5 -17 2 9 2 25 0 35 -3 9 -5 1 -5 -18z"/>
<path d="M5427 7230 c-3 -11 -1 -20 4 -20 5 0 9 9 9 20 0 11 -2 20 -4 20 -2 0
-6 -9 -9 -20z"/>
<path d="M2131 7227 c-2 -38 22 -156 31 -151 5 3 6 15 2 27 -4 12 -13 49 -20
82 -7 33 -12 52 -13 42z"/>
<path d="M2371 7230 c-1 -24 29 -134 39 -144 5 -5 0 24 -11 65 -25 92 -27 98
-28 79z"/>
<path d="M2076 7148 c4 -46 10 -99 15 -118 7 -30 8 -28 4 15 -4 38 -2 45 5 30
9 -18 10 -17 5 5 -3 14 -10 53 -16 88 -6 34 -13 62 -15 62 -2 0 -1 -37 2 -82z"/>
<path d="M5677 7214 c-10 -10 -9 -52 3 -74 10 -20 61 -41 94 -39 12 1 3 5 -18
10 -52 12 -78 36 -74 68 4 34 26 38 34 7 6 -27 38 -42 71 -33 10 3 4 5 -14 6
-24 1 -35 8 -45 28 -13 28 -38 40 -51 27z"/>
<path d="M3620 7199 c0 -8 3 -30 6 -50 5 -29 12 -38 40 -48 19 -7 41 -22 48
-34 19 -31 28 -89 15 -107 -8 -13 -13 -10 -32 14 -59 78 -56 77 -57 19 0 -28
-2 -58 -5 -65 -4 -9 4 -19 20 -26 30 -14 33 -50 6 -74 -17 -15 -20 -15 -25 -1
-4 8 -13 13 -20 10 -16 -7 -46 33 -46 60 0 10 9 0 19 -22 16 -32 20 -36 20
-17 1 12 -8 40 -19 62 -29 56 -24 74 6 20 l25 -45 -5 40 c-16 121 -19 136 -36
145 -15 8 -18 -1 -23 -103 -4 -62 -14 -139 -22 -172 -18 -68 -80 -205 -93
-205 -5 0 -14 -11 -20 -25 -17 -37 -15 -41 7 -14 23 28 23 29 44 -41 26 -87
40 -199 35 -280 -3 -42 -2 -64 2 -50 5 14 8 52 9 84 l1 60 51 -100 c57 -110
57 -110 65 -102 3 4 -2 17 -10 31 -9 13 -15 33 -14 43 4 26 -84 224 -96 217
-5 -3 -6 -1 -3 5 4 5 -2 31 -13 58 -11 26 -19 49 -16 51 2 3 30 -38 62 -91 32
-52 60 -93 61 -92 3 3 -81 153 -112 199 -8 13 -12 27 -8 32 5 4 2 5 -4 1 -9
-5 -13 0 -13 13 0 26 10 51 21 51 12 0 112 -210 139 -293 12 -38 24 -66 27
-64 7 8 -28 118 -64 196 -40 89 -30 117 15 39 30 -54 80 -110 54 -61 -20 36
-14 48 13 23 13 -12 23 -25 22 -29 -1 -3 14 -21 32 -39 27 -27 31 -35 21 -48
-11 -13 -17 -10 -42 18 l-28 33 27 -42 c17 -28 30 -40 37 -34 15 13 51 75 39
68 -5 -4 -21 6 -34 21 -51 56 -53 64 -6 29 27 -21 53 -35 57 -32 5 3 19 20 30
38 l22 32 -21 -24 -22 -24 -31 29 c-66 61 -99 101 -129 157 -17 32 -29 61 -26
64 3 3 19 -4 34 -15 38 -27 90 -39 199 -48 90 -6 90 -6 107 20 17 25 17 26 -5
26 -53 0 -230 48 -247 66 -16 18 -16 22 -1 65 8 25 21 44 27 42 13 -5 43 116
43 174 0 47 -36 120 -70 145 -34 24 -90 35 -90 17z m149 -173 c1 -57 -5 -40
-12 29 -3 37 -2 51 3 35 4 -14 8 -43 9 -64z m-235 -365 c14 -15 15 -21 4 -27
-7 -4 -10 -3 -5 1 4 5 0 17 -10 27 -9 10 -14 18 -11 18 3 0 13 -9 22 -19z m23
-64 c1 -29 1 -30 -8 -9 -5 13 -7 28 -3 33 8 14 9 12 11 -24z m17 -303 c20 -42
36 -79 36 -83 -1 -7 -48 82 -67 127 -25 61 -5 32 31 -44z"/>
<path d="M5243 7203 l-41 -4 -4 -62 -3 -62 108 6 c108 5 135 15 124 43 -4 11
-19 16 -47 16 -38 0 -40 2 -40 29 0 27 4 30 38 34 l37 4 -42 1 -43 2 0 -40 0
-40 45 0 c32 0 45 -4 45 -14 0 -18 -44 -26 -137 -26 -66 0 -74 2 -71 18 2 12
14 18 41 20 36 3 37 4 37 43 0 21 -1 38 -2 37 -2 -1 -22 -3 -45 -5z m37 -38
c0 -22 -4 -25 -35 -25 -31 0 -35 3 -35 25 0 22 4 25 35 25 31 0 35 -3 35 -25z"/>
<path d="M2882 7170 c0 -19 2 -27 5 -17 2 9 2 25 0 35 -3 9 -5 1 -5 -18z"/>
<path d="M3232 7170 c0 -19 2 -27 5 -17 2 9 2 25 0 35 -3 9 -5 1 -5 -18z"/>
<path d="M3362 7127 c-7 -38 -26 -104 -42 -148 -16 -44 -25 -77 -19 -74 5 4 9
-4 10 -17 1 -40 46 91 59 172 16 103 10 160 -8 67z m-41 -200 c-10 -9 -11 -8
-5 6 3 10 9 15 12 12 3 -3 0 -11 -7 -18z"/>
<path d="M1816 6975 c2 -104 8 -206 13 -225 7 -27 8 -19 4 35 -2 39 -8 140
-13 225 l-8 155 4 -190z"/>
<path d="M5827 7141 c3 -12 -1 -21 -11 -24 -13 -4 -13 -5 1 -3 19 1 32 46 15
46 -6 0 -8 -9 -5 -19z"/>
<path d="M1903 7055 c-1 -57 2 -87 6 -70 4 17 4 62 0 100 -6 68 -6 67 -6 -30z"/>
<path d="M5150 7116 c0 -19 3 -37 8 -40 4 -2 6 13 4 35 -5 48 -12 51 -12 5z"/>
<path d="M1465 7093 c-25 -65 -47 -212 -50 -338 -2 -77 -2 -131 1 -120 3 11
10 24 14 29 5 5 6 45 3 90 -5 80 17 267 38 324 5 14 8 27 6 29 -3 2 -8 -4 -12
-14z"/>
<path d="M1936 7080 c8 -43 14 -51 14 -19 0 13 -5 31 -10 39 -7 11 -8 5 -4
-20z"/>
<path d="M3025 7090 c-3 -5 1 -10 9 -10 8 0 18 5 21 10 3 6 -1 10 -9 10 -8 0
-18 -4 -21 -10z"/>
<path d="M2955 7074 c-22 -8 -47 -22 -55 -31 -8 -8 -10 -14 -5 -12 6 3 34 13
63 24 28 11 52 23 52 27 0 10 -8 9 -55 -8z"/>
<path d="M2170 7061 c0 -6 4 -13 10 -16 6 -3 7 1 4 9 -7 18 -14 21 -14 7z"/>
<path d="M2751 7034 c0 -11 3 -14 6 -6 3 7 2 16 -1 19 -3 4 -6 -2 -5 -13z"/>
<path d="M1692 7015 c0 -16 2 -22 5 -12 2 9 2 23 0 30 -3 6 -5 -1 -5 -18z"/>
<path d="M2860 7033 c-20 -7 -50 -34 -50 -44 0 -12 59 24 65 39 2 6 3 12 2 11
-1 0 -9 -3 -17 -6z"/>
<path d="M4383 7005 c-15 -20 -43 -45 -61 -55 -33 -20 -34 -20 -59 0 -14 11
-35 20 -47 20 -17 0 -18 -2 -6 -10 13 -8 13 -10 -2 -10 -10 0 -46 -41 -89
-102 -40 -57 -77 -109 -83 -117 -9 -12 -8 -13 4 -6 8 5 -2 -8 -22 -28 -24 -23
-35 -43 -31 -52 3 -10 1 -15 -7 -13 -12 3 -186 -239 -178 -248 3 -2 33 37 66
88 34 51 62 89 62 85 0 -17 -121 -187 -130 -182 -9 6 -75 -83 -67 -91 2 -2 16
14 31 36 14 22 29 40 32 40 6 0 -29 -53 -56 -85 -22 -26 -32 -65 -16 -65 6 0
47 20 90 45 43 24 83 42 88 39 5 -3 14 -17 19 -31 17 -45 -39 -89 -156 -124
-33 -9 -55 -18 -48 -18 10 -1 158 -179 334 -401 25 -32 77 -96 114 -142 38
-45 70 -84 71 -86 4 -8 121 44 166 75 48 32 53 33 65 17 16 -22 5 -37 -56 -76
-35 -21 -47 -25 -58 -16 -11 9 -13 8 -11 -2 4 -20 -59 -37 -83 -22 -10 6 25
-40 78 -103 52 -63 99 -115 103 -115 4 0 22 27 39 60 31 57 31 60 14 78 -10
10 -34 36 -54 58 l-36 40 33 22 33 21 30 -38 c20 -25 29 -46 25 -58 -3 -10 4
-3 16 14 21 32 21 33 3 57 -10 13 -146 182 -302 375 -157 194 -286 359 -287
367 -2 9 -13 27 -25 40 -12 13 -19 27 -16 30 4 4 17 -6 29 -22 13 -16 158
-198 324 -406 215 -268 304 -374 314 -368 9 6 -65 103 -266 351 -153 189 -302
373 -332 408 -33 39 -51 69 -47 79 4 12 3 13 -10 2 -8 -7 -15 -19 -15 -26 0
-14 -40 -36 -72 -39 -9 -1 -23 -5 -32 -8 -11 -5 -15 -1 -13 13 4 22 154 256
301 467 l103 148 58 0 c44 0 59 4 66 18 6 10 14 15 18 12 5 -2 21 13 36 36 16
22 35 44 44 49 9 5 11 10 4 10 -7 0 -25 -16 -40 -35z m-412 -392 c-5 -10 -17
-27 -26 -38 -16 -19 -17 -19 -3 5 26 46 29 50 34 50 3 0 0 -8 -5 -17z m174
-668 c45 -55 110 -140 145 -190 36 -49 79 -106 97 -126 31 -34 32 -37 15 -51
-46 -41 -49 -38 -207 163 -203 258 -230 290 -243 277 -15 -15 4 -48 28 -48 10
0 22 -5 26 -11 4 -7 0 -9 -14 -5 -17 6 -20 3 -15 -16 7 -27 -5 -19 -21 14 -6
13 -25 29 -41 37 -17 8 -33 18 -36 23 -3 5 -10 8 -15 7 -15 -4 -64 20 -64 31
0 15 41 12 74 -5 36 -19 35 -19 29 4 -3 12 6 31 24 51 l28 32 -3 -46 c-2 -25
0 -46 5 -46 8 0 11 85 4 109 0 3 -14 -8 -30 -23 l-28 -27 -21 27 -20 28 36 26
37 26 64 -80 c35 -45 101 -126 146 -181z m-105 -65 c0 -5 -2 -10 -4 -10 -3 0
-8 5 -11 10 -3 6 -1 10 4 10 6 0 11 -4 11 -10z"/>
<path d="M1950 7016 c0 -8 4 -17 9 -20 5 -4 7 3 4 14 -6 23 -13 26 -13 6z"/>
<path d="M4427 6998 c-104 -138 -447 -645 -447 -659 0 -11 69 -103 154 -206
234 -287 269 -329 363 -449 48 -62 90 -110 92 -108 5 4 -5 18 -84 118 -33 42
-70 91 -83 109 -13 17 -33 43 -45 57 -12 14 -35 45 -52 69 -16 25 -62 79 -101
120 -39 42 -92 101 -116 131 -44 54 -84 120 -73 120 3 0 -1 13 -10 29 -11 22
-12 32 -3 37 7 5 8 3 3 -6 -6 -9 -4 -11 4 -6 7 5 10 15 7 23 -3 8 -2 12 3 9 5
-3 15 2 22 11 10 11 10 14 2 9 -9 -5 -11 -2 -7 8 3 9 11 13 17 9 6 -3 7 -1 3
5 -5 9 60 112 119 187 14 18 15 17 1 -11 -11 -22 -12 -34 -4 -42 13 -13 1 -35
-14 -26 -7 4 -8 2 -4 -5 5 -7 -20 -55 -59 -116 -41 -64 -64 -109 -59 -117 21
-35 207 -268 211 -264 2 2 -43 64 -101 137 -92 116 -103 135 -94 153 6 12 77
121 157 244 80 122 160 245 176 272 35 57 52 76 61 67 3 -3 -6 -22 -21 -41
-15 -20 -23 -36 -17 -36 6 0 14 4 17 10 3 5 14 14 24 19 13 7 20 5 29 -10 10
-16 9 -19 -4 -19 -8 0 -12 5 -9 11 4 6 -2 5 -13 -2 -15 -10 -18 -17 -11 -26 8
-9 15 -9 29 -1 23 15 46 -2 52 -37 6 -31 -14 -51 -31 -31 -9 11 -9 20 -2 34
10 18 7 20 -23 19 -23 -1 -33 -5 -32 -16 1 -21 -28 -25 -47 -6 -15 14 -18 13
-33 -12 -23 -36 -177 -272 -226 -345 l-38 -57 30 17 c27 16 30 16 46 0 15 -15
15 -17 -5 -28 -34 -17 -44 -55 -25 -91 8 -17 13 -33 10 -36 -10 -10 -37 59
-31 78 5 14 1 25 -11 34 -16 11 -20 10 -29 -9 -10 -18 -4 -29 37 -81 27 -33
63 -82 80 -109 18 -27 34 -44 36 -38 2 6 30 -20 63 -58 59 -69 75 -95 42 -69
-16 13 -17 12 -4 -3 7 -10 17 -16 21 -13 8 5 45 -37 181 -205 104 -128 143
-180 136 -180 -2 0 -52 58 -111 129 -58 72 -111 133 -117 136 -13 9 193 -246
213 -262 11 -10 27 -6 77 17 77 37 121 40 121 9 0 -12 11 -30 25 -41 21 -16
36 -58 21 -58 -2 0 -13 -3 -23 -6 -15 -6 -16 -4 -5 7 17 19 15 28 -10 38 -32
12 -64 -15 -45 -38 10 -14 10 -14 -4 -3 -14 10 -27 6 -80 -26 -74 -45 -103
-89 -117 -174 -8 -51 -7 -56 7 -48 9 4 27 20 40 34 22 24 23 27 9 43 -10 11
-13 25 -9 37 7 17 9 17 28 -8 12 -14 26 -26 32 -26 7 0 0 16 -15 35 -35 47
-24 56 17 13 l32 -33 -27 37 c-39 55 -31 67 14 23 45 -44 54 -39 15 7 -35 41
-23 49 17 12 18 -16 25 -20 15 -8 -38 46 -13 63 52 35 44 -18 54 -19 101 -8
51 12 55 15 147 135 53 67 98 122 100 122 6 0 -4 -16 -84 -124 -73 -100 -99
-151 -42 -86 18 21 26 26 20 13 -6 -12 -16 -25 -21 -28 -6 -3 -10 -10 -10 -16
0 -19 16 -7 44 32 15 22 30 38 33 35 3 -3 -4 -17 -14 -33 -32 -45 -37 -57 -25
-49 27 17 1 -45 -53 -126 -17 -25 -20 -35 -10 -32 8 4 15 10 15 16 0 13 115
180 117 170 1 -4 4 -20 7 -35 4 -16 17 -32 32 -39 21 -10 22 -13 9 -20 -17
-10 -20 -34 -6 -42 5 -4 7 3 4 13 -3 13 2 21 15 25 11 4 26 13 32 21 11 13 8
14 -17 9 -21 -4 -35 -1 -46 11 -21 20 -22 68 -2 85 8 7 13 15 10 19 -2 4 9 5
26 3 17 -3 29 0 29 7 0 7 -24 11 -66 11 -57 0 -65 2 -62 18 3 14 12 16 45 14
59 -5 83 5 83 33 0 13 4 25 8 27 4 2 18 20 31 41 26 43 32 44 103 17 39 -15
48 -16 33 -5 -11 9 -20 20 -20 25 0 5 -6 15 -12 22 -7 6 -13 18 -13 26 0 7 -4
11 -9 8 -4 -3 -1 10 7 29 9 19 19 35 23 35 37 0 159 -79 159 -103 0 -7 13 -20
30 -29 30 -17 77 -102 53 -96 -5 1 -18 -1 -31 -6 -17 -5 -37 2 -85 30 -77 46
-77 46 -77 41 0 -2 27 -21 60 -41 33 -21 58 -40 56 -44 -7 -12 77 -12 91 -1 7
6 13 20 13 30 0 13 7 19 21 19 17 0 20 -5 17 -25 -5 -22 -2 -25 26 -24 40 1
91 16 61 18 -17 1 -20 8 -20 56 0 30 5 55 10 55 6 1 -10 18 -35 40 l-44 39
-31 -23 c-52 -40 -93 -57 -101 -44 -5 7 4 20 21 32 58 42 105 92 120 129 l15
37 -32 -1 c-24 -1 -27 -3 -10 -6 23 -5 28 -19 13 -42 -7 -11 -13 -10 -35 4
-14 9 -23 21 -20 26 3 5 -6 9 -20 9 -19 0 -26 5 -26 20 0 18 7 20 68 20 37 0
72 4 79 8 6 4 -23 6 -65 4 -53 -3 -81 -8 -89 -19 -10 -13 -15 -12 -43 2 -55
28 -43 10 16 -26 32 -19 68 -48 81 -65 l24 -32 -43 -31 c-23 -17 -47 -29 -53
-27 -97 41 -202 94 -211 105 -9 12 -7 19 10 32 16 13 18 20 9 29 -8 9 -11 8
-10 -6 2 -15 -6 -20 -40 -22 -23 -2 -47 -10 -53 -18 -14 -16 -11 -17 44 -14
49 2 45 -23 -5 -30 -26 -4 -35 -10 -37 -27 -3 -18 6 -27 42 -45 46 -22 61 -48
29 -48 -10 1 -29 7 -43 15 -22 12 -27 12 -40 -5 -26 -32 -63 -35 -96 -6 -28
24 -28 26 -14 53 11 20 25 29 48 31 46 5 39 20 -10 24 -30 2 -43 8 -43 18 0
12 10 14 43 12 38 -3 43 -1 40 14 -3 15 -11 18 -51 15 -42 -2 -47 0 -47 18 0
18 4 20 51 14 49 -6 51 -5 47 18 -2 19 2 25 20 27 17 3 22 -2 22 -17 0 -18 6
-21 38 -20 30 2 32 3 9 6 -15 2 -32 14 -38 25 -11 20 -10 21 37 14 26 -3 45
-3 41 0 -3 3 -30 10 -59 14 l-53 8 50 2 50 2 -53 8 c-60 9 -73 17 -52 31 11 8
9 9 -8 4 -18 -5 -25 -2 -29 14 -3 12 -9 21 -13 21 -5 0 -50 52 -100 115 -50
63 -94 115 -97 115 -4 0 1 -8 10 -18 18 -20 22 -36 8 -30 -11 4 -87 97 -206
253 -55 72 -125 163 -157 203 -32 40 -58 76 -58 79 0 14 37 -29 126 -142 52
-68 102 -129 112 -137 9 -7 0 8 -20 33 -35 44 -36 48 -25 78 11 31 10 34 -23
62 -19 16 -55 40 -80 54 -34 18 -69 56 -145 154 -55 72 -103 130 -107 131 -4
0 -18 -15 -31 -32z m53 -36 c-5 -10 -25 -35 -44 -56 l-34 -40 13 50 c7 27 19
62 26 78 l13 28 18 -22 c13 -16 15 -26 8 -38z m90 -97 c0 -5 -5 -3 -10 5 -5 8
-10 20 -10 25 0 6 5 3 10 -5 5 -8 10 -19 10 -25z m105 -165 c50 -63 108 -139
130 -170 21 -30 75 -101 120 -156 44 -56 93 -118 108 -138 31 -40 57 -40 31 0
-25 37 -10 29 22 -13 15 -20 23 -33 17 -30 -21 13 -25 -14 -5 -36 18 -20 111
-142 135 -177 6 -8 1 -6 -10 5 -40 37 -593 736 -672 848 l-43 62 38 -41 c22
-22 80 -91 129 -154z m-308 108 c-19 -29 -62 -97 -96 -150 -35 -54 -67 -95
-72 -92 -5 3 -2 18 6 33 8 16 12 31 9 34 -13 13 91 151 107 141 4 -2 22 16 39
41 43 62 48 57 7 -7z m241 7 c-3 -3 -9 2 -12 12 -6 14 -5 15 5 6 7 -7 10 -15
7 -18z m45 -145 c53 -68 159 -204 196 -250 42 -51 187 -234 250 -315 125 -161
126 -162 68 -99 -31 33 -78 88 -104 122 -203 259 -428 530 -433 522 -3 -5 -12
1 -19 13 -13 20 -13 21 2 8 28 -23 19 0 -18 45 -19 23 -35 48 -35 56 1 14 26
-14 93 -102z m-253 87 c0 -13 38 -16 58 -3 8 5 12 0 12 -13 0 -11 4 -23 10
-26 6 -4 7 1 3 10 -4 13 -1 16 13 13 28 -5 26 -52 -3 -56 -15 -2 -23 3 -28 18
-4 13 -12 19 -21 16 -22 -8 -64 15 -64 36 0 10 5 18 10 18 6 0 10 -6 10 -13z
m163 -51 c7 -16 -1 -26 -20 -26 -7 0 -13 9 -13 20 0 23 25 27 33 6z m-172 -23
c13 -16 12 -17 -3 -4 -10 7 -18 15 -18 17 0 8 8 3 21 -13z m147 -51 c2 -18 8
-30 13 -26 5 3 7 10 4 15 -4 5 -1 9 5 9 8 0 9 -7 5 -17 -28 -65 -55 -147 -55
-167 0 -12 13 -62 30 -110 29 -86 29 -87 7 -80 -12 3 -33 13 -47 20 l-25 14
27 -6 c27 -6 32 6 14 35 -7 10 -5 12 3 6 10 -6 11 -3 2 12 -6 11 -8 23 -5 25
3 3 -2 8 -11 12 -13 5 -14 2 -4 -15 9 -17 8 -20 -2 -14 -9 6 -11 3 -6 -9 5
-11 3 -15 -4 -10 -17 10 -2 224 16 242 3 3 3 -9 1 -26 -2 -17 0 -29 5 -27 4 3
7 13 7 23 -1 9 2 39 6 66 5 36 3 52 -6 58 -10 7 -10 9 2 5 8 -2 16 -18 18 -35z
m52 29 c0 -6 -4 -13 -10 -16 -5 -3 -10 1 -10 9 0 9 5 16 10 16 6 0 10 -4 10
-9z m-230 -15 c0 -3 -4 -8 -10 -11 -5 -3 -10 -1 -10 4 0 6 5 11 10 11 6 0 10
-2 10 -4z m260 -22 c0 -8 -7 -14 -15 -14 -15 0 -21 21 -9 33 10 9 24 -2 24
-19z m30 -15 c0 -10 -6 -19 -14 -19 -9 0 -12 8 -8 25 5 28 22 24 22 -6z m-55
-81 c4 -40 12 -78 17 -85 12 -15 16 -193 4 -211 -14 -23 -34 6 -47 66 -11 52
-8 140 6 202 l6 25 -15 -25 c-8 -14 -15 -39 -16 -57 0 -17 -4 -35 -10 -38 -18
-11 -11 82 11 139 12 31 25 56 29 56 5 0 11 -33 15 -72z m211 -99 c211 -261
320 -403 326 -427 4 -12 2 -20 -3 -16 -5 3 -9 0 -9 -6 0 -6 -5 -8 -12 -4 -7 4
-8 3 -4 -5 4 -6 1 -24 -6 -39 -8 -15 -13 -39 -13 -54 1 -15 -1 -25 -5 -23 -6
4 -6 60 0 60 1 0 3 8 5 18 2 9 0 15 -5 12 -5 -3 -10 1 -12 7 -3 7 -5 -9 -5
-37 0 -66 -6 -116 -14 -120 -3 -2 -6 1 -7 8 -6 45 -9 57 -16 64 -4 5 -7 3 -5
-2 1 -6 -1 -28 -6 -50 -8 -37 -9 -38 -16 -15 -4 14 -7 18 -8 9 -1 -9 -7 -22
-15 -28 -11 -9 -13 -6 -12 16 1 16 -5 28 -14 30 -13 4 -13 3 0 -7 10 -8 11
-10 2 -8 -8 2 -14 8 -14 13 0 6 -5 17 -11 25 -10 13 -10 13 6 1 11 -9 17 -10
17 -2 0 6 -5 11 -11 11 -8 0 -8 4 -1 13 8 10 6 13 -11 14 -17 2 -18 0 -7 -7
13 -8 13 -10 0 -15 -11 -4 -16 -26 -18 -87 -1 -45 -7 -87 -12 -93 -5 -7 -7
-15 -3 -18 3 -4 -1 -7 -10 -7 -9 0 -16 5 -14 11 1 6 -4 14 -12 17 -9 3 -11 0
-6 -8 6 -9 4 -11 -5 -5 -10 6 -12 4 -7 -9 4 -10 3 -15 -3 -11 -6 3 -10 2 -10
-4 0 -6 -6 -8 -14 -5 -8 3 -13 13 -11 22 1 9 -2 25 -7 36 -6 10 -6 16 -1 13 9
-6 9 28 0 53 -7 19 -16 85 -17 125 0 23 -3 27 -10 15 -8 -13 -10 -13 -10 2 0
9 5 18 10 20 7 2 6 17 -3 43 -8 22 -17 52 -21 67 -6 26 -5 27 20 18 41 -16 41
-12 1 16 -21 14 -36 28 -33 31 3 3 24 -6 46 -21 22 -14 40 -24 40 -21 0 3 -21
19 -46 35 -46 29 -76 31 -54 5 7 -8 9 -19 6 -24 -4 -5 2 -33 13 -60 10 -28 15
-51 10 -51 -12 0 -41 68 -41 96 0 11 -10 25 -21 30 -11 5 -19 13 -18 19 2 5
-5 12 -14 15 -9 3 -16 9 -16 13 1 4 -8 16 -20 28 -20 20 -23 20 -63 5 -47 -18
-112 -21 -121 -6 -3 6 -21 10 -40 10 -19 0 -36 4 -40 10 -3 5 -12 7 -20 3 -8
-3 -15 0 -15 6 0 15 98 91 118 91 8 0 34 -11 56 -23 34 -20 105 -47 165 -63 8
-3 11 -11 6 -22 -5 -13 -4 -14 6 -5 10 10 9 17 -8 35 -18 21 -20 32 -16 109 4
62 1 101 -10 135 -8 27 -18 69 -21 93 -6 39 -5 43 9 31 13 -11 19 -11 33 3 9
10 17 17 18 17 1 0 64 -77 140 -171z m-439 128 c-2 -7 3 -18 12 -25 13 -11 13
-13 1 -9 -8 2 -23 18 -34 37 l-19 32 22 -11 c12 -7 20 -18 18 -24z m-67 -2 c0
-2 -9 -3 -19 -2 -11 0 -18 5 -15 9 4 6 34 0 34 -7z m-5 -33 c-25 -2 -32 -9
-41 -37 -6 -19 -8 -37 -6 -40 10 -10 11 -35 1 -29 -5 3 -7 9 -4 14 3 5 1 11
-4 14 -10 6 -8 52 3 76 5 12 16 15 44 11 36 -5 36 -6 7 -9z m104 -28 c14 -12
-19 -1 -35 12 -18 14 -18 14 6 3 14 -6 27 -13 29 -15z m-93 -10 c1 -9 0 -13
-4 -10 -3 4 -7 14 -8 22 -1 9 0 13 4 10 3 -4 7 -14 8 -22z m-96 -34 c-19 -26
-20 -34 -9 -41 13 -8 21 -10 35 -8 4 0 16 -16 28 -36 12 -19 26 -32 31 -28 5
4 0 -7 -11 -26 -10 -19 -25 -36 -33 -39 -7 -2 -4 5 8 17 11 11 21 25 21 30 0
18 -45 64 -77 77 l-33 14 26 40 c15 22 29 38 32 36 2 -3 -6 -19 -18 -36z m31
-151 c-13 -11 -26 -17 -30 -14 -3 3 -1 9 5 13 6 4 14 16 18 26 5 15 9 17 19 7
9 -10 7 -17 -12 -32z m-46 15 c-13 -10 -14 -16 -4 -38 8 -18 9 -30 2 -37 -6
-6 -10 -5 -10 3 0 7 -4 30 -8 50 -6 34 -5 37 15 35 19 -1 19 -3 5 -13z m925
-144 c0 -5 -2 -10 -4 -10 -3 0 -8 5 -11 10 -3 6 -1 10 4 10 6 0 11 -4 11 -10z
m-550 -10 c-8 -5 -19 -10 -25 -10 -5 0 -3 5 5 10 8 5 20 10 25 10 6 0 3 -5 -5
-10z m121 -128 c11 -24 16 -49 12 -55 -3 -7 -2 -9 2 -4 15 13 45 -24 39 -50
-4 -13 -1 -29 5 -37 6 -7 8 -22 4 -31 -5 -14 -3 -16 7 -10 8 5 2 -7 -12 -26
-25 -33 -28 -66 -5 -52 8 4 8 1 -1 -9 -17 -21 7 -44 28 -25 12 10 12 9 2 -4
-6 -9 -8 -20 -4 -25 4 -5 -5 1 -19 14 -14 12 -28 19 -32 16 -3 -4 -4 6 -1 21
3 15 1 24 -5 21 -5 -3 -8 2 -6 11 1 10 0 22 -3 27 -5 8 -7 31 -15 143 -2 23
-10 49 -18 59 -11 14 -11 16 0 10 10 -7 12 -3 6 15 -4 13 -10 26 -14 29 -3 3
-13 14 -21 25 l-15 20 24 -20 c13 -11 32 -40 42 -63z m94 -280 c-3 -3 -11 0
-18 7 -9 10 -8 11 6 5 10 -3 15 -9 12 -12z m961 -59 c3 -24 5 -46 3 -48 -2 -2
-24 15 -48 38 l-44 41 29 23 c26 21 30 21 41 7 7 -9 15 -37 19 -61z m38 -14
c3 -20 2 -47 -3 -60 -8 -21 -10 -18 -15 26 -4 28 -10 64 -13 80 -4 28 -4 29
10 10 8 -11 17 -36 21 -56z m-1034 11 c12 -16 19 -30 16 -30 -2 0 -14 14 -26
30 -12 17 -19 30 -16 30 2 0 14 -13 26 -30z m514 -2 c-33 -54 -105 -142 -78
-95 15 26 76 107 80 107 3 0 2 -6 -2 -12z m-369 -68 c2 -21 1 -22 -12 -5 -16
23 -17 38 -1 33 6 -2 12 -15 13 -28z"/>
<path d="M4405 6244 c-16 -8 -37 -22 -45 -31 -9 -8 0 -6 20 6 19 12 45 21 57
21 12 0 25 5 28 10 9 15 -26 12 -60 -6z"/>
<path d="M4810 6042 c0 -12 19 -26 26 -19 2 2 -2 10 -11 17 -9 8 -15 8 -15 2z"/>
<path d="M5088 6045 c-2 -13 -5 -29 -8 -35 -8 -21 -6 -41 3 -47 7 -3 9 -3 5 2
-4 4 -3 14 3 22 6 7 8 13 4 13 -4 0 -2 7 5 15 10 12 10 19 2 27 -7 7 -13 8
-14 3z"/>
<path d="M4827 5786 c4 -12 2 -17 -3 -13 -6 3 -9 -13 -8 -41 2 -59 1 -57 19
-42 12 10 18 10 30 0 17 -14 17 -14 20 17 1 12 -1 20 -6 17 -4 -2 -5 -12 -2
-22 5 -14 4 -15 -8 -4 -11 10 -11 16 -1 32 7 12 8 21 2 25 -6 4 -8 10 -5 15 3
5 0 12 -6 16 -8 4 -9 3 -5 -4 11 -19 -5 -14 -20 6 -13 16 -14 16 -7 -2z m36
-49 c-5 -8 -8 -8 -11 1 -2 7 -8 9 -13 6 -6 -4 -6 -11 1 -19 7 -9 6 -15 -3 -23
-11 -9 -13 -4 -11 26 1 20 2 38 3 40 1 1 10 -2 21 -8 12 -6 18 -16 13 -23z"/>
<path d="M4713 5940 c-1 -11 2 -22 8 -25 5 -4 6 2 2 11 -5 13 -3 15 8 9 12 -8
12 -6 0 8 -17 21 -16 21 -18 -3z"/>
<path d="M4709 5879 c-8 -15 -8 -19 0 -15 14 9 14 0 1 -24 -7 -13 -7 -21 0
-25 6 -4 8 -12 4 -18 -3 -7 3 -1 15 13 12 16 16 29 10 35 -13 13 -11 28 2 19
8 -4 8 0 0 15 -7 11 -14 21 -16 21 -2 0 -9 -10 -16 -21z m25 -38 c3 -5 -1 -11
-9 -14 -9 -4 -12 -1 -8 9 6 16 10 17 17 5z"/>
<path d="M5233 7014 c11 -4 17 -15 17 -33 0 -20 7 -29 30 -38 19 -7 31 -20 36
-39 10 -38 -12 -136 -33 -151 -9 -7 -12 -13 -6 -13 18 0 31 23 44 75 11 42 14
46 19 26 3 -14 12 -26 20 -29 10 -2 11 -1 4 5 -6 4 -15 24 -19 43 -4 19 -14
48 -22 63 -17 33 -10 62 12 53 8 -3 15 -1 15 4 0 6 5 10 11 10 6 0 17 7 25 15
21 20 16 19 -44 -10 -29 -14 -52 -29 -52 -35 0 -22 -29 4 -32 28 -2 18 -9 27
-23 29 -16 1 -16 1 -2 -3z"/>
<path d="M5430 6980 c21 -42 19 -65 -6 -56 -8 3 -14 -1 -14 -9 0 -18 -26 -20
-34 -2 -3 6 -3 1 1 -13 4 -14 8 -40 8 -57 0 -18 4 -33 9 -33 5 0 6 18 3 40 -3
22 -2 40 1 40 4 0 20 10 35 23 l28 22 -18 42 c-10 24 -21 43 -26 43 -4 0 2
-18 13 -40z"/>
<path d="M5737 7014 c-4 -4 -7 -18 -7 -31 0 -20 -5 -23 -39 -23 -33 0 -40 4
-43 22 -2 13 -11 23 -21 24 -14 2 -14 1 -1 -3 12 -3 15 -12 11 -31 -6 -27 -5
-27 49 -24 52 4 54 5 54 33 0 22 5 29 20 29 15 0 20 -7 20 -25 0 -22 4 -25 35
-25 36 0 50 -24 20 -33 -11 -4 -10 -4 2 -3 11 1 18 9 18 21 0 15 -8 21 -32 23
-24 2 -33 9 -35 25 -3 22 -36 35 -51 21z"/>
<path d="M5198 6975 c-2 -19 0 -35 4 -35 4 0 8 16 8 35 0 19 -2 35 -4 35 -2 0
-6 -16 -8 -35z"/>
<path d="M3463 6950 c0 -30 2 -43 4 -27 2 15 2 39 0 55 -2 15 -4 2 -4 -28z"/>
<path d="M5592 6980 c0 -14 2 -19 5 -12 2 6 2 18 0 25 -3 6 -5 1 -5 -13z"/>
<path d="M2095 6962 c-2 -3 -2 -9 1 -13 7 -12 64 -12 64 0 0 9 -57 21 -65 13z"/>
<path d="M2670 6945 c13 -14 26 -25 28 -25 3 0 -5 11 -18 25 -13 14 -26 25
-28 25 -3 0 5 -11 18 -25z"/>
<path d="M1341 6918 c-17 -23 -31 -53 -31 -67 1 -30 38 -174 40 -151 1 27 17
-11 23 -57 5 -40 4 -42 -25 -48 -38 -9 -32 -24 22 -54 36 -20 42 -21 37 -8
-18 47 -31 166 -31 289 -1 76 -2 138 -3 138 -1 0 -15 -19 -32 -42z m18 -53 c1
-30 -1 -55 -3 -55 -3 0 -13 14 -21 31 -15 28 -15 33 0 55 8 13 17 24 19 24 1
0 4 -25 5 -55z"/>
<path d="M1694 6870 c4 -114 37 -222 101 -335 30 -53 45 -91 50 -132 12 -108
56 -245 72 -229 3 3 1 12 -6 20 -11 13 -32 146 -25 155 2 2 12 -2 21 -10 16
-13 17 -12 5 3 -7 9 -9 18 -5 21 11 7 33 -19 25 -29 -4 -4 -1 -4 6 0 9 5 20
-10 38 -51 79 -177 77 -174 209 -308 106 -107 135 -130 160 -131 16 -1 56 -7
88 -13 33 -7 61 -10 64 -8 2 3 -15 8 -39 12 -69 11 -76 14 -80 45 -3 17 -2 30
0 30 3 0 74 -22 158 -50 84 -27 161 -50 171 -50 10 0 64 29 121 65 57 36 106
65 108 65 3 0 2 -37 -2 -82 -7 -79 -6 -81 14 -76 27 8 48 -10 56 -47 21 -93
27 -107 41 -95 25 21 115 -116 139 -212 6 -26 4 -28 -23 -28 -23 0 -29 -4 -25
-15 4 -8 11 -12 17 -8 21 13 167 -9 232 -33 20 -8 -63 126 -109 175 -17 18
-44 40 -61 48 l-30 14 29 -6 c49 -10 90 -51 155 -154 35 -54 73 -103 86 -109
l23 -11 -19 -38 c-10 -20 -19 -44 -19 -53 0 -9 -22 -37 -48 -63 l-49 -48 -89
36 c-49 20 -100 46 -114 59 -14 13 -55 38 -92 56 -40 19 -78 46 -93 66 -14 18
-46 45 -70 59 -56 33 -145 66 -145 54 0 -5 5 -9 10 -9 6 0 10 -5 10 -11 0 -5
-5 -7 -12 -3 -6 4 -17 -1 -25 -11 -7 -11 -13 -14 -13 -8 0 7 5 15 10 18 17 10
11 23 -8 18 -17 -4 -31 -27 -53 -90 -6 -18 -15 -33 -19 -33 -5 0 -31 26 -59
57 -35 39 -48 60 -41 68 7 8 -17 37 -78 96 -176 169 -248 230 -313 264 -36 19
-85 55 -108 80 -23 25 -45 45 -49 45 -12 0 -50 86 -67 150 -19 72 -19 91 0 84
31 -12 13 6 -22 23 -65 31 -175 149 -213 230 -19 39 -36 70 -38 68 -2 -2 8
-29 22 -61 24 -53 26 -65 22 -158 -10 -221 -19 -325 -30 -329 -16 -6 -56 10
-56 23 0 6 -4 8 -10 5 -5 -3 -20 1 -34 10 -27 18 -46 98 -46 198 0 64 15 86
19 26 1 -22 15 -79 32 -127 31 -90 32 -83 10 58 -6 36 -11 105 -11 155 l0 89
38 -35 c66 -63 79 -65 18 -4 -63 64 -104 121 -126 172 -8 17 -18 29 -24 26 -5
-3 -6 -1 -2 6 11 17 -3 51 -21 51 -13 0 -14 -2 -2 -17 13 -16 12 -17 -3 -4
-10 7 -16 17 -13 21 3 4 -3 14 -12 21 -14 12 -15 11 -10 -6 3 -11 8 -35 12
-52 4 -18 11 -33 16 -33 6 0 7 -5 4 -10 -4 -6 -11 -7 -17 -4 -6 4 -5 -3 2 -15
7 -15 8 -26 2 -34 -19 -23 -44 -140 -37 -176 4 -26 3 -32 -4 -21 -9 13 -11 12
-11 -3 0 -9 -19 -39 -42 -65 -24 -26 -34 -39 -22 -29 11 9 25 17 31 17 6 0 13
6 15 12 3 7 8 -16 11 -50 13 -121 65 -205 157 -251 33 -16 83 -49 109 -74 43
-38 51 -51 60 -102 6 -32 11 -60 11 -62 0 -2 5 -3 11 -3 6 0 9 7 5 15 -3 8 -2
14 2 12 5 -1 23 11 42 27 27 22 30 27 13 22 -36 -11 -27 9 12 27 19 9 35 13
35 8 0 -5 19 -2 42 6 29 10 73 13 140 11 53 -1 95 -5 92 -7 -2 -2 11 -14 30
-25 39 -24 117 -109 120 -131 1 -7 15 -24 31 -37 15 -12 47 -42 69 -67 75 -83
85 -91 130 -103 30 -8 59 -26 83 -50 33 -34 36 -41 25 -59 -12 -18 -11 -19 7
-10 32 17 50 14 44 -9 -7 -27 -93 -80 -129 -80 -60 0 -449 144 -438 162 4 7 2
8 -5 4 -14 -9 -53 2 -46 14 3 4 -5 6 -17 2 -13 -3 -19 -1 -15 5 5 7 -1 9 -15
5 -13 -3 -19 -1 -15 5 4 6 -4 8 -21 6 -19 -3 -23 -2 -13 5 9 7 -2 9 -35 6 -36
-3 -43 -1 -24 5 43 15 -128 0 -226 -19 -96 -19 -186 -56 -235 -97 -33 -28 -66
-83 -49 -83 5 0 10 -7 10 -15 0 -27 -19 -16 -29 18 -9 31 -9 31 -10 5 -1 -19
7 -33 24 -44 18 -12 25 -26 27 -53 1 -20 4 -5 8 34 4 48 7 57 8 30 4 -74 22
-76 22 -2 0 41 4 66 9 62 10 -5 37 33 34 46 -4 12 35 41 45 35 6 -3 22 -40 37
-81 34 -93 43 -94 13 -2 -26 80 -20 91 47 92 39 0 45 3 45 21 0 23 36 34 115
34 l40 0 3 -58 c2 -31 7 -73 12 -92 6 -25 7 -13 4 42 -5 70 -4 77 15 88 26 13
69 6 176 -29 48 -15 80 -31 80 -40 0 -8 15 -14 41 -16 45 -3 137 -55 208 -116
67 -58 136 -112 136 -107 0 3 -32 32 -70 64 -39 32 -66 60 -60 62 7 3 5 11 -6
23 -15 16 -5 15 69 -11 48 -17 95 -30 106 -30 10 0 44 -12 75 -26 32 -14 60
-23 63 -20 4 3 1 6 -6 6 -13 0 -42 60 -35 72 11 18 33 5 51 -29 15 -28 36 -45
84 -70 35 -18 69 -33 74 -32 6 0 4 3 -2 6 -17 6 -17 23 0 23 7 0 18 -9 25 -20
7 -11 19 -20 27 -20 13 0 14 4 5 20 -16 30 5 24 32 -9 13 -15 38 -33 56 -39
42 -14 41 -7 -3 13 -19 9 -50 36 -69 60 l-35 43 31 6 c17 3 32 5 33 4 1 -2 23
-31 48 -65 26 -34 47 -66 47 -71 0 -13 101 -56 124 -54 11 1 17 0 13 -4 -3 -3
3 -16 14 -28 15 -15 19 -32 18 -64 -3 -38 0 -45 28 -62 18 -10 36 -28 42 -38
6 -11 18 -22 28 -26 16 -5 16 -4 3 7 -8 7 -24 22 -34 35 -19 22 -19 22 6 22
13 0 33 -7 44 -15 18 -15 18 -15 0 -8 -21 7 -22 9 21 -59 20 -33 21 -38 6 -38
-9 0 -27 9 -39 21 l-22 21 -7 -59 c-4 -32 -18 -82 -30 -110 -16 -35 -20 -53
-12 -53 7 -1 32 -18 56 -39 l43 -38 -33 -12 c-30 -10 -35 -9 -61 16 -36 35
-42 56 -25 90 8 15 25 69 38 120 23 91 23 92 4 113 -18 20 -27 22 -97 18 -67
-4 -90 -11 -180 -55 -169 -83 -268 -169 -338 -296 -32 -58 -21 -45 40 46 57
85 137 157 233 208 49 26 61 29 71 18 7 -8 82 -90 167 -183 138 -151 216 -241
303 -346 35 -44 23 -18 -16 31 -15 20 -28 41 -28 46 0 4 78 52 173 106 171 97
344 201 361 217 5 5 -8 12 -28 16 -31 5 -41 2 -62 -17 -13 -12 -24 -30 -24
-40 0 -10 -4 -21 -10 -24 -6 -4 -10 7 -10 25 0 23 9 41 33 63 21 20 24 26 10
19 -30 -17 -33 -15 -33 13 0 23 -2 24 -20 15 -12 -6 -28 -27 -38 -47 -17 -35
-17 -35 11 -59 31 -26 33 -36 13 -53 -11 -10 -24 8 -71 96 -32 59 -78 139
-104 177 -25 38 -54 82 -65 98 -23 36 -86 215 -86 243 1 13 12 0 30 -35 16
-30 41 -68 55 -85 l27 -30 -23 35 -23 35 42 -37 c23 -21 47 -38 53 -38 6 0 45
-33 85 -72 79 -77 99 -121 73 -156 -11 -14 -11 -15 1 -4 8 6 22 12 32 12 13 0
18 8 18 30 0 44 -31 100 -83 147 -25 23 -48 47 -52 54 -13 19 73 4 97 -18 20
-17 21 -17 15 0 -9 24 19 22 33 -2 5 -11 10 -29 10 -40 0 -12 21 -36 54 -63
36 -28 55 -51 55 -65 1 -12 6 -34 13 -48 9 -19 16 -24 32 -19 12 3 25 10 30
15 6 5 17 2 27 -7 17 -15 20 -14 48 7 16 13 30 28 30 33 1 6 -12 -3 -29 -19
-29 -28 -30 -28 -50 -10 -11 10 -20 23 -20 30 0 21 -55 66 -66 55 -8 -8 -27 3
-62 35 -41 37 -52 53 -52 77 0 28 2 30 27 23 35 -8 49 -30 45 -66 -1 -4 10 -2
23 5 14 6 25 17 25 24 0 10 6 9 28 -2 20 -10 35 -31 47 -63 17 -46 45 -95 45
-80 0 4 -7 24 -15 44 -24 58 -19 71 15 38 18 -17 30 -39 30 -54 0 -24 1 -24
18 9 17 35 17 35 -9 58 -35 28 -48 28 -23 0 l19 -23 -22 19 c-12 10 -21 23
-20 28 1 6 -4 13 -12 16 -9 3 -11 0 -6 -9 5 -8 4 -11 -1 -6 -5 5 -9 14 -9 20
0 6 -26 23 -58 39 -31 16 -57 34 -57 41 0 38 -111 138 -194 175 -16 7 -26 15
-24 18 7 6 230 -80 311 -121 37 -19 65 -30 62 -24 -9 14 -130 73 -209 100 -81
28 -128 75 -200 197 -72 123 -200 407 -242 534 -36 109 -37 119 -22 134 15 15
19 11 57 -65 49 -97 111 -199 158 -261 53 -70 266 -311 309 -350 l39 -35 -37
40 c-21 23 -38 43 -38 45 0 3 -36 43 -81 90 -156 165 -301 373 -359 514 -22
55 -22 59 -7 86 10 15 17 34 17 42 0 7 -12 -9 -26 -36 -14 -27 -39 -67 -55
-87 l-30 -38 22 -81 c11 -44 19 -87 15 -95 -3 -8 -1 -15 5 -15 6 0 4 -7 -5
-15 -9 -9 -12 -23 -9 -33 6 -15 5 -15 -10 -3 -9 7 -15 17 -12 21 2 4 -7 13
-20 20 -13 7 -23 16 -21 19 2 3 -4 14 -14 24 -17 17 -17 16 -9 -30 23 -121 52
-219 71 -235 22 -19 43 -24 33 -8 -3 6 -1 10 5 10 7 0 5 7 -4 16 -11 11 -13
21 -7 32 6 11 4 20 -7 29 -15 12 -15 12 2 6 15 -5 17 -3 11 8 -4 8 -5 11 0 7
4 -4 14 -3 22 3 11 10 11 15 1 27 -10 13 -10 14 0 8 8 -5 12 0 12 15 0 12 46
-67 101 -177 56 -109 115 -221 131 -248 16 -26 27 -50 24 -53 -2 -3 -9 5 -15
16 -17 30 -86 75 -171 108 -72 29 -75 32 -122 106 -27 43 -44 77 -39 77 4 0
24 -10 42 -23 19 -13 40 -22 46 -20 6 2 32 -20 58 -49 26 -29 39 -39 27 -23
-33 49 -74 82 -132 109 -68 31 -106 70 -114 116 l-6 35 18 -37 c30 -60 31 -54
10 44 -11 51 -25 122 -32 156 l-11 64 -23 -31 c-13 -17 -20 -36 -17 -41 3 -5
0 -12 -6 -16 -7 -4 -9 -3 -5 4 3 5 1 12 -5 14 -7 2 -1 25 18 63 28 58 28 62
18 134 l-10 75 -18 -28 c-29 -43 -31 -23 -4 31 20 39 24 58 20 100 -3 29 -9
50 -14 47 -4 -2 -3 9 3 26 5 17 12 29 14 27 2 -2 5 -32 5 -68 l2 -64 15 35
c30 73 52 185 52 265 0 79 1 82 45 150 25 38 52 70 60 71 8 1 14 -1 14 -4 -1
-4 -1 -14 0 -22 1 -11 4 -10 13 5 6 11 13 67 14 125 2 58 1 96 -2 85 -28 -111
-81 -223 -148 -311 -22 -29 -42 -75 -60 -141 -65 -230 -132 -310 -406 -485
-79 -51 -114 -68 -140 -68 -40 0 -384 115 -470 157 -91 44 -159 121 -208 236
-32 75 -53 109 -90 145 -58 57 -102 120 -147 210 -43 88 -63 159 -80 284 l-14
103 3 -95z m1756 -147 c0 -26 -3 -34 -11 -26 -9 9 -3 63 7 63 2 0 4 -17 4 -37z
m-1925 -321 c-3 -8 -5 -25 -5 -39 l0 -26 -20 26 c-17 21 -18 29 -8 57 10 31
12 32 25 14 7 -10 11 -25 8 -32z m-27 -52 c8 -14 14 -77 17 -188 2 -92 6 -184
9 -205 2 -21 2 -36 -1 -34 -2 3 -5 9 -5 14 0 4 -13 23 -29 41 -38 43 -72 119
-72 162 0 38 52 230 62 230 3 0 12 -9 19 -20z m39 -72 c-3 -8 -6 -5 -6 6 -1
11 2 17 5 13 3 -3 4 -12 1 -19z m300 -80 c4 -7 7 -24 7 -38 -1 -23 -1 -23 3
-2 3 13 10 21 16 19 13 -4 13 -7 17 -82 2 -46 3 -47 9 -16 6 33 7 30 34 -51
15 -48 36 -97 46 -110 17 -21 25 -54 22 -83 -1 -5 -19 9 -41 30 -51 50 -52 32
-2 -23 22 -23 36 -42 32 -42 -12 0 -78 75 -96 110 l-18 35 -6 -30 c-6 -30 -7
-30 -19 15 -15 50 -30 280 -19 280 4 0 10 -6 15 -12z m1364 -26 c-12 -23 -2
-74 13 -65 8 5 8 3 0 -8 -7 -8 -13 -23 -15 -33 -4 -18 -6 -18 -33 6 l-29 25
32 46 c32 47 50 63 32 29z m-1795 -69 c10 -31 33 -79 53 -107 l34 -50 -40 32
c-41 32 -44 39 -69 160 -8 42 4 22 22 -35z m388 -83 c4 -47 9 -110 12 -140 4
-44 3 -51 -6 -37 -7 10 -10 21 -7 24 3 2 -6 21 -19 40 -35 52 -62 167 -43 179
5 3 9 0 9 -7 0 -8 4 -8 15 1 8 7 15 22 15 34 1 52 18 -14 24 -94z m1360 -249
c9 -24 14 -46 12 -49 -3 -2 -10 15 -17 37 -7 23 -15 39 -18 35 -8 -7 -30 112
-30 161 1 29 6 15 19 -50 10 -49 26 -110 34 -134z m-814 147 c0 -5 -9 -4 -20
2 -11 6 -20 12 -20 14 0 2 9 2 20 -1 11 -3 20 -9 20 -15z m-605 3 c-6 -5 -21
-11 -35 -15 -21 -5 -20 -3 5 9 35 17 42 18 30 6z m1478 -11 c3 -11 -2 -25 -11
-32 -13 -11 -14 -11 -7 2 5 8 8 23 7 33 -4 23 4 22 11 -3z m-161 -34 c7 4 8 2
4 -4 -10 -16 4 -63 17 -55 5 3 7 1 3 -5 -3 -6 -1 -23 5 -39 5 -15 6 -23 1 -18
-14 15 -52 123 -51 143 1 11 3 8 6 -6 3 -13 9 -19 15 -16z m159 -33 c-12 -20
-14 -14 -5 12 4 9 9 14 11 11 3 -2 0 -13 -6 -23z m-1500 -29 c13 -14 40 -34
59 -44 l34 -18 -32 -7 c-35 -7 -88 17 -77 35 3 6 0 7 -7 5 -8 -3 -27 8 -43 25
l-29 30 35 0 c25 0 43 -8 60 -26z m432 -40 c26 -9 47 -20 47 -25 0 -5 -13 -3
-30 6 -16 8 -44 15 -62 15 -25 0 -29 3 -18 10 8 5 15 10 16 10 0 0 21 -7 47
-16z m61 -78 c51 -61 45 -64 -10 -6 -26 28 -53 50 -61 50 -8 0 -11 5 -8 10 10
16 39 -4 79 -54z m-449 5 c3 -5 1 -12 -4 -15 -5 -3 -11 1 -15 9 -6 16 9 21 19
6z m522 -55 c0 -9 -2 -14 -4 -12 -3 2 -4 7 -4 10 1 4 -11 18 -26 32 l-28 26
31 -21 c17 -11 31 -27 31 -35z m888 -74 c14 -20 33 -62 41 -92 9 -30 18 -63
20 -72 3 -10 1 -18 -3 -18 -5 0 -17 26 -27 58 -22 70 -47 120 -75 149 -26 28
-27 37 -1 23 11 -6 31 -27 45 -48z m-814 31 c13 -16 12 -17 -3 -4 -10 7 -18
15 -18 17 0 8 8 3 21 -13z m555 -280 c49 -36 60 -65 39 -101 -18 -31 -63 -63
-87 -61 -7 0 1 7 18 14 42 19 74 59 67 86 -5 18 -44 54 -123 112 -14 10 -7 8
15 -4 22 -13 54 -33 71 -46z m-180 10 c-11 -11 -17 4 -9 23 7 18 8 18 11 1 2
-10 1 -21 -2 -24z m-1153 5 c-18 -6 -33 -15 -33 -20 0 -5 -5 -6 -12 -2 -13 8
35 34 62 33 8 -1 0 -6 -17 -11z m1111 -75 c-5 -51 -3 -62 19 -95 l26 -37 -24
11 c-22 10 -55 71 -55 102 0 13 31 76 37 76 2 0 0 -26 -3 -57z m182 19 c-6 -5
-56 21 -56 29 0 5 13 0 29 -9 16 -9 28 -18 27 -20z m61 -46 c-5 -13 -29 -10
-74 9 -53 22 -38 34 22 17 31 -9 54 -20 52 -26z m161 -20 c79 -50 133 -125
131 -183 0 -24 -3 -22 -17 17 -11 30 -41 69 -89 118 -40 39 -70 72 -68 72 3 0
22 -11 43 -24z m-322 1 c2 -2 10 -19 19 -39 15 -38 7 -56 -19 -41 -14 8 -66
78 -66 90 0 5 60 -4 66 -10z m908 -35 c37 -42 10 -36 -34 6 -39 39 -41 43 -15
29 17 -8 38 -24 49 -35z m54 18 c13 -16 19 -30 14 -30 -4 0 -16 14 -25 30 -10
17 -16 30 -14 30 2 0 13 -13 25 -30z m-727 6 c5 3 9 1 9 -4 0 -5 6 -9 13 -9
13 0 107 -60 107 -68 0 -9 -145 75 -147 85 -1 7 0 7 4 0 2 -5 9 -8 14 -4z
m-43 -40 c-7 -8 -15 -12 -17 -11 -5 6 10 25 20 25 5 0 4 -6 -3 -14z m434 -84
c-33 -37 -65 -66 -71 -65 -6 2 -13 -8 -17 -21 -6 -24 -6 -24 -40 14 -19 20
-34 44 -34 52 0 7 -8 30 -18 50 -14 26 -15 35 -5 31 7 -3 13 -11 13 -19 0 -13
35 -38 55 -39 6 0 9 -10 7 -22 -2 -12 2 -24 7 -28 7 -4 8 0 4 10 -3 10 0 21 8
26 11 7 11 9 1 9 -7 0 -11 4 -7 9 3 6 -4 8 -15 6 -12 -2 -18 0 -15 6 4 5 3 9
-2 8 -19 -3 -33 2 -33 12 0 8 6 7 17 -2 9 -8 18 -13 20 -11 2 2 16 1 32 -3 26
-6 29 -10 27 -38 -2 -18 -1 -23 1 -12 3 11 28 44 56 72 42 44 53 50 60 37 7
-11 -6 -32 -51 -82z m-562 58 c0 -28 -2 -30 -37 -29 -37 1 -37 2 -8 8 21 4 31
13 33 29 5 32 12 27 12 -8z m150 10 c0 -5 -5 -10 -11 -10 -5 0 -7 5 -4 10 3 6
8 10 11 10 2 0 4 -4 4 -10z m660 -5 c34 -18 39 -40 11 -54 -23 -13 -51 11 -30
25 7 4 9 3 5 -4 -3 -6 -2 -13 4 -17 19 -11 10 18 -12 42 -25 27 -19 29 22 8z
m-502 -99 c34 -27 62 -53 62 -58 0 -5 -8 -3 -18 4 -127 94 -170 129 -175 142
-7 17 25 -5 131 -88z m-11 52 c40 -27 74 -69 56 -68 -4 1 -35 26 -68 56 -62
58 -60 61 12 12z m-119 12 c7 -11 9 -20 4 -20 -4 0 -13 9 -20 20 -7 11 -9 20
-4 20 4 0 13 -9 20 -20z m492 -17 c0 -18 -17 -16 -24 3 -8 22 4 40 15 23 5 -8
9 -20 9 -26z m276 -21 c40 -30 107 -93 102 -97 -9 -7 -238 9 -238 16 0 5 8 9
18 9 15 1 15 2 -2 15 -17 13 -17 15 -3 15 9 0 29 16 44 35 15 19 31 35 34 35
3 0 24 -13 45 -28z m-726 4 c0 -3 -4 -8 -10 -11 -5 -3 -10 -1 -10 4 0 6 5 11
10 11 6 0 10 -2 10 -4z m15 -25 c3 -5 1 -12 -5 -16 -5 -3 -10 1 -10 9 0 18 6
21 15 7z m845 -68 c0 -22 -7 -14 -29 30 l-20 42 24 -30 c14 -16 25 -36 25 -42z
m-813 32 c8 -9 13 -19 10 -22 -6 -5 -37 21 -37 31 0 10 11 6 27 -9z m173 -36
c21 -29 23 -29 41 -13 18 17 19 16 19 -26 0 -39 -2 -41 -17 -29 -42 31 -83 74
-83 86 0 22 18 14 40 -18z m171 4 c-12 -20 -14 -14 -5 12 4 9 9 14 11 11 3 -2
0 -13 -6 -23z m-301 -3 c0 -5 -4 -10 -10 -10 -5 0 -10 5 -10 10 0 6 5 10 10
10 6 0 10 -4 10 -10z m456 -18 c-4 -3 -14 2 -24 12 -16 18 -16 18 6 6 13 -6
21 -14 18 -18z m-308 -46 c53 -55 63 -76 37 -76 -9 0 -12 6 -9 15 5 11 2 13
-10 9 -19 -7 -22 11 -3 20 6 3 -1 4 -18 1 -18 -4 -25 -2 -17 3 9 6 7 13 -9 28
-22 19 -22 19 -15 -6 5 -17 4 -21 -2 -11 -5 7 -14 11 -20 7 -6 -4 -20 3 -31
15 -16 17 -18 26 -10 36 22 26 54 13 107 -41z m515 47 c-7 -2 -21 -2 -30 0
-10 3 -4 5 12 5 17 0 24 -2 18 -5z m-443 -54 c0 -24 -4 -38 -10 -34 -5 3 -10
24 -10 46 0 24 4 38 10 34 6 -3 10 -24 10 -46z m487 45 c-3 -3 -12 -4 -19 -1
-8 3 -5 6 6 6 11 1 17 -2 13 -5z m-417 -24 c0 -5 -2 -10 -4 -10 -3 0 -8 5 -11
10 -3 6 -1 10 4 10 6 0 11 -4 11 -10z m-12 -34 c-7 -8 -15 -12 -17 -11 -5 6
10 25 20 25 5 0 4 -6 -3 -14z m-178 -62 c0 -7 -4 -16 -10 -19 -5 -3 -10 0 -10
7 0 7 -3 24 -6 38 -5 24 -5 24 10 6 9 -11 16 -25 16 -32z m547 -31 c-9 -9 -24
6 -46 44 l-22 38 37 -38 c19 -21 33 -41 31 -44z m-517 39 c0 -15 -2 -15 -10
-2 -13 20 -13 33 0 25 6 -3 10 -14 10 -23z m117 12 c-3 -3 -12 -4 -19 -1 -8 3
-5 6 6 6 11 1 17 -2 13 -5z m-27 -90 c-10 -18 -11 -17 -7 4 3 12 1 22 -4 22
-5 0 -9 5 -9 12 0 8 6 7 16 -4 13 -13 14 -20 4 -34z m173 20 c4 -4 -3 -20 -14
-35 -14 -21 -16 -29 -7 -29 7 0 0 -12 -15 -25 -23 -21 -31 -23 -47 -13 -15 10
-16 16 -8 32 8 15 7 22 -8 33 -9 7 -15 16 -11 19 4 4 13 1 21 -5 10 -9 16 -9
21 -1 12 19 57 35 68 24z m-426 -57 c7 0 9 -5 6 -10 -4 -6 0 -8 10 -4 18 7 22
-13 8 -47 -7 -18 -8 -18 -14 -3 -3 9 -2 17 3 17 6 0 10 5 10 12 0 6 -3 8 -6 5
-4 -3 -16 0 -28 8 -11 8 -30 15 -41 15 -16 0 -17 2 -5 10 8 5 22 7 30 4 8 -4
20 -7 27 -7z m328 -57 c4 -6 -1 -10 -9 -10 -16 0 -56 38 -56 53 0 9 55 -28 65
-43z m-270 -10 c-4 -17 -9 -29 -12 -26 -3 2 -2 19 2 36 4 17 9 29 12 26 3 -2
2 -19 -2 -36z m55 -6 c0 -2 -9 0 -20 6 -11 6 -20 13 -20 16 0 2 9 0 20 -6 11
-6 20 -13 20 -16z m230 -24 c0 -5 -4 -10 -9 -10 -6 0 -13 5 -16 10 -3 6 1 10
9 10 9 0 16 -4 16 -10z m5 -30 c7 -12 -2 -12 -30 0 -19 8 -19 9 2 9 12 1 25
-3 28 -9z m16 -37 c13 -15 12 -15 -8 -4 -24 12 -29 21 -14 21 5 0 15 -7 22
-17z m-51 -38 c-13 -14 -26 -22 -29 -19 -3 3 5 14 18 25 33 27 39 24 11 -6z
m95 -15 c3 -5 1 -10 -4 -10 -6 0 -11 5 -11 10 0 6 2 10 4 10 3 0 8 -4 11 -10z"/>
<path d="M3210 4940 c-13 -8 -13 -10 2 -10 9 0 20 5 23 10 8 13 -5 13 -25 0z"/>
<path d="M3464 4735 c-9 -13 -14 -30 -12 -36 2 -7 14 4 26 24 24 41 12 51 -14
12z"/>
<path d="M2180 6951 c0 -6 8 -11 18 -11 9 0 28 -3 42 -6 17 -5 22 -3 15 4 -15
15 -75 26 -75 13z"/>
<path d="M1960 6940 c0 -13 11 -13 30 0 12 8 11 10 -7 10 -13 0 -23 -4 -23
-10z"/>
<path d="M5583 6910 c0 -25 2 -35 4 -22 2 12 2 32 0 45 -2 12 -4 2 -4 -23z"/>
<path d="M2735 6929 c-4 -6 -5 -12 -2 -15 2 -3 7 2 10 11 7 17 1 20 -8 4z"/>
<path d="M2330 6916 c0 -3 14 -12 30 -21 17 -9 30 -13 30 -11 0 3 -13 12 -30
21 -16 9 -30 13 -30 11z"/>
<path d="M5130 6905 c0 -8 4 -15 10 -15 5 0 7 7 4 15 -4 8 -8 15 -10 15 -2 0
-4 -7 -4 -15z"/>
<path d="M5625 6869 c-4 -26 -2 -63 3 -83 9 -30 8 -38 -6 -46 -9 -5 -12 -10
-5 -10 17 0 28 21 25 50 l-1 25 10 -26 c10 -28 58 -55 81 -46 7 3 4 6 -7 6
-35 2 -65 30 -65 61 0 37 24 60 62 60 23 0 29 4 24 16 -3 9 -6 19 -6 24 0 4
-24 10 -54 12 l-55 3 -6 -46z"/>
<path d="M5785 6878 c5 -28 19 -56 41 -81 19 -20 34 -33 34 -29 0 5 -13 21
-29 36 -32 30 -49 95 -28 108 8 5 6 8 -6 8 -16 0 -18 -5 -12 -42z"/>
<path d="M2993 6895 c-55 -16 -123 -57 -148 -86 -20 -24 -20 -24 0 -8 11 9 31
22 45 29 22 10 21 9 -5 -13 -23 -19 -30 -34 -32 -65 -1 -32 2 -39 13 -35 8 3
14 -1 14 -11 0 -13 6 -15 28 -10 15 4 29 7 32 6 39 0 39 -16 3 -55 l-28 -30
29 19 c17 10 39 17 49 16 11 -2 24 2 29 10 7 10 11 10 15 1 2 -7 15 -13 27
-13 12 0 33 -8 46 -17 l25 -17 -20 23 c-16 19 -17 24 -5 31 10 6 23 4 39 -7
l24 -15 -7 53 c-4 30 -18 73 -31 97 -27 47 -15 56 29 21 37 -29 60 -77 58
-124 -2 -35 0 -37 10 -20 6 11 25 38 42 60 17 21 26 36 20 32 -8 -4 -14 8 -18
34 -5 31 -10 40 -22 35 -8 -3 -13 -2 -10 3 7 10 -19 33 -61 55 -39 19 -131 20
-190 1z"/>
<path d="M5240 6896 c0 -8 -16 -45 -35 -81 -19 -37 -29 -62 -21 -56 10 8 16 8
26 -4 7 -8 20 -15 29 -14 11 0 10 3 -6 11 -13 6 -23 19 -23 30 0 20 20 24 37
7 9 -9 14 -5 19 16 14 56 10 99 -8 103 -11 2 -18 -3 -18 -12z m11 -70 c5 3 9
-1 9 -9 0 -10 -7 -13 -19 -10 -13 3 -18 10 -13 21 4 10 7 12 10 4 2 -7 8 -10
13 -6z"/>
<path d="M5170 6890 c13 -8 11 -17 -13 -61 -15 -28 -23 -48 -17 -44 11 7 34
49 50 90 8 22 7 25 -13 25 -18 0 -19 -2 -7 -10z"/>
<path d="M1594 6805 c0 -49 1 -71 3 -48 2 23 2 64 0 90 -2 26 -3 8 -3 -42z"/>
<path d="M4283 6868 c-23 -25 -145 -208 -139 -208 2 0 26 30 52 68 26 37 63
88 81 115 37 51 39 61 6 25z"/>
<path d="M3630 6861 c0 -6 4 -13 10 -16 6 -3 7 1 4 9 -7 18 -14 21 -14 7z"/>
<path d="M5707 6823 c-15 -14 -7 -43 12 -43 20 0 35 25 25 41 -6 11 -28 12
-37 2z m23 -23 c0 -5 -5 -10 -11 -10 -5 0 -7 5 -4 10 3 6 8 10 11 10 2 0 4 -4
4 -10z"/>
<path d="M4410 6801 c0 -6 5 -13 12 -17 6 -4 8 -3 4 4 -3 5 0 13 6 15 8 3 6 6
-4 6 -10 1 -18 -3 -18 -8z"/>
<path d="M5580 6784 c0 -10 5 -26 10 -34 8 -11 9 -7 4 15 -8 37 -14 45 -14 19z"/>
<path d="M2048 6766 c-20 -7 -55 -28 -78 -46 -33 -26 -40 -38 -37 -59 2 -14 2
-20 0 -13 -7 20 -23 3 -23 -24 0 -14 4 -23 8 -20 5 3 7 -8 4 -23 -3 -22 2 -33
26 -49 l29 -21 -4 27 c-2 21 1 18 16 -15 22 -47 37 -59 21 -17 -25 65 -5 156
42 188 28 20 44 21 28 1 -17 -21 -30 -84 -21 -108 5 -14 10 -17 15 -9 10 17
66 15 66 -2 0 -8 3 -21 6 -30 3 -9 1 -16 -6 -16 -6 0 -8 6 -4 13 4 6 -4 2 -17
-9 -13 -12 -30 -19 -36 -17 -7 3 -13 0 -13 -5 0 -16 44 -74 70 -94 23 -17 29
-17 83 -3 32 8 71 22 88 30 25 14 29 21 29 60 0 25 -4 45 -10 45 -5 0 -10 -16
-10 -35 0 -41 -25 -67 -79 -83 -62 -19 -87 -15 -115 19 -26 30 -35 56 -16 44
6 -3 22 3 36 14 27 22 60 29 49 11 -3 -5 0 -10 7 -10 7 0 19 9 26 21 11 17 20
20 45 15 29 -6 30 -5 12 8 -16 12 -18 17 -7 28 10 10 17 10 32 0 26 -16 31
-15 23 5 -4 11 -3 14 5 9 12 -7 17 6 6 17 -4 4 -8 26 -10 49 -3 24 -11 48 -19
54 -8 6 -15 16 -15 22 0 11 -48 28 -112 38 -39 7 -47 -2 -25 -26 6 -8 0 -5
-14 8 -29 25 -48 27 -101 8z m172 -216 c0 -5 -2 -10 -4 -10 -3 0 -8 5 -11 10
-3 6 -1 10 4 10 6 0 11 -4 11 -10z"/>
<path d="M5765 6760 c-10 -11 -13 -20 -7 -20 6 0 14 5 17 11 4 6 14 8 22 4 13
-4 14 -3 3 10 -15 19 -13 19 -35 -5z"/>
<path d="M1602 6685 c-2 -47 25 -186 39 -199 9 -8 11 -7 7 4 -8 22 -37 160
-41 195 l-4 30 -1 -30z"/>
<path d="M1842 6690 c0 -14 2 -19 5 -12 2 6 2 18 0 25 -3 6 -5 1 -5 -13z"/>
<path d="M1324 6646 c-3 -21 -4 -39 -1 -42 2 -3 8 11 11 32 4 20 5 38 2 41 -2
3 -8 -11 -12 -31z"/>
<path d="M5230 6649 c0 -31 -1 -31 -37 -26 -29 5 -34 4 -20 -4 30 -17 62 -7
66 21 1 14 8 28 15 32 7 5 5 8 -6 8 -13 0 -18 -8 -18 -31z"/>
<path d="M5278 6654 c4 -25 7 -26 61 -22 50 3 56 1 54 -16 -1 -13 2 -15 10 -7
7 7 7 15 -2 25 -9 11 -25 13 -62 9 -45 -5 -49 -4 -49 16 0 11 -4 21 -9 21 -4
0 -6 -12 -3 -26z"/>
<path d="M5749 6653 c-12 -16 -12 -17 1 -7 8 7 24 14 35 17 19 4 19 5 -1 6
-12 0 -28 -7 -35 -16z"/>
<path d="M1851 6644 c0 -11 3 -14 6 -6 3 7 2 16 -1 19 -3 4 -6 -2 -5 -13z"/>
<path d="M5626 6652 c-3 -5 6 -7 19 -4 25 4 25 4 25 -71 0 -41 -5 -78 -10 -80
-6 -3 -5 -4 2 -3 9 2 13 26 13 82 0 73 -2 79 -22 82 -11 2 -24 -1 -27 -6z"/>
<path d="M4110 6620 c-12 -16 -19 -30 -16 -30 2 0 14 14 26 30 12 17 19 30 16
30 -2 0 -14 -13 -26 -30z"/>
<path d="M5803 6580 c0 -41 2 -58 4 -37 2 20 2 54 0 75 -2 20 -4 3 -4 -38z"/>
<path d="M2890 6627 c0 -28 22 -78 39 -86 30 -16 118 -23 157 -12 42 11 74 51
74 92 0 28 -11 18 -25 -24 -13 -41 -46 -57 -122 -57 -55 0 -64 3 -82 26 -12
15 -21 35 -21 45 0 10 -4 21 -10 24 -5 3 -10 0 -10 -8z"/>
<path d="M3005 6630 c-3 -5 3 -10 14 -10 12 0 21 5 21 10 0 6 -6 10 -14 10 -8
0 -18 -4 -21 -10z"/>
<path d="M5621 6568 c0 -37 2 -69 7 -71 4 -3 6 18 4 46 -5 86 -9 96 -11 25z"/>
<path d="M5752 6575 c-3 -72 -17 -103 -60 -130 -35 -22 -40 -59 -9 -61 12 -1
13 -1 2 3 -25 8 -17 30 19 51 42 25 59 74 54 147 l-4 50 -2 -60z"/>
<path d="M1861 6614 c-1 -16 30 -103 39 -109 4 -3 0 16 -10 43 -9 26 -20 54
-23 62 -3 8 -6 10 -6 4z"/>
<path d="M5293 6593 c-37 -7 -26 -23 15 -23 44 0 77 -28 92 -76 6 -21 9 -23 9
-9 2 36 -36 85 -72 93 l-32 7 40 6 c40 6 40 6 5 6 -19 0 -45 -2 -57 -4z"/>
<path d="M4069 6563 c-13 -16 -12 -17 4 -4 16 13 21 21 13 21 -2 0 -10 -8 -17
-17z"/>
<path d="M5190 6571 c32 -6 33 -7 12 -15 -31 -10 -62 -63 -61 -101 1 -26 2
-25 9 10 5 27 19 49 44 71 20 17 36 34 36 38 0 3 -17 5 -37 5 l-38 -2 35 -6z"/>
<path d="M3856 6523 c-6 -14 -5 -15 5 -6 7 7 10 15 7 18 -3 3 -9 -2 -12 -12z"/>
<path d="M4008 6478 c-51 -72 -61 -88 -55 -88 3 0 28 34 56 75 29 41 50 75 47
75 -2 0 -24 -28 -48 -62z"/>
<path d="M5270 6524 c0 -14 3 -14 15 -4 8 7 15 14 15 16 0 2 -7 4 -15 4 -8 0
-15 -7 -15 -16z"/>
<path d="M5208 6500 c-19 -25 -24 -50 -10 -50 20 1 33 20 30 46 l-3 29 -17
-25z m4 -32 c-7 -7 -12 -8 -12 -2 0 14 12 26 19 19 2 -3 -1 -11 -7 -17z"/>
<path d="M5302 6480 c-40 -47 -94 -74 -130 -66 -23 5 -24 5 -9 -5 17 -10 42
-8 81 7 11 4 16 0 16 -14 0 -12 5 -24 11 -27 16 -11 97 24 114 48 23 33 18 43
-7 12 -20 -25 -73 -55 -98 -55 -24 0 -7 31 24 44 39 16 60 48 51 76 -9 27 -15
25 -53 -20z m48 14 c0 -17 -24 -46 -50 -59 -44 -23 -45 -19 -3 24 36 36 53 48
53 35z"/>
<path d="M4870 6496 c0 -2 8 -10 18 -17 15 -13 16 -12 3 4 -13 16 -21 21 -21
13z"/>
<path d="M5791 6488 c-1 -10 -16 -34 -33 -54 -27 -30 -29 -35 -11 -25 26 13
57 66 49 84 -2 7 -5 4 -5 -5z"/>
<path d="M3332 6470 c0 -14 2 -19 5 -12 2 6 2 18 0 25 -3 6 -5 1 -5 -13z"/>
<path d="M1632 6450 c0 -14 2 -19 5 -12 2 6 2 18 0 25 -3 6 -5 1 -5 -13z"/>
<path d="M4910 6446 c0 -2 8 -10 18 -17 15 -13 16 -12 3 4 -13 16 -21 21 -21
13z"/>
<path d="M3330 6378 c0 -29 -8 -88 -19 -130 -10 -43 -14 -75 -10 -72 5 3 9
-14 9 -36 0 -40 -13 -54 -44 -50 -18 3 -22 -22 -12 -74 6 -30 14 -58 18 -61 4
-4 19 31 33 77 24 71 28 106 33 241 2 86 2 157 -2 157 -3 0 -6 -24 -6 -52z"/>
<path d="M1641 6409 c-1 -18 30 -112 35 -107 2 2 -5 31 -16 63 -10 33 -19 53
-19 44z"/>
<path d="M4950 6396 c0 -2 8 -10 18 -17 15 -13 16 -12 3 4 -13 16 -21 21 -21
13z"/>
<path d="M4995 6340 c10 -11 20 -20 23 -20 3 0 -3 9 -13 20 -10 11 -20 20 -23
20 -3 0 3 -9 13 -20z"/>
<path d="M5301 6306 c-8 -9 -8 -21 -1 -37 9 -23 9 -23 7 6 -2 24 2 30 18 30
12 0 22 -9 26 -25 6 -21 7 -22 8 -4 2 37 -36 57 -58 30z"/>
<path d="M5712 6314 c15 -5 18 -23 21 -140 l3 -134 -1 137 c0 130 -1 138 -20
140 -15 1 -16 1 -3 -3z"/>
<path d="M5195 6299 c-4 -6 -9 -36 -12 -67 -4 -43 -1 -62 12 -77 16 -20 16
-20 6 2 -22 44 -9 146 18 141 13 -3 15 -14 13 -56 -3 -33 1 -58 9 -68 11 -14
10 -19 -6 -31 -18 -14 -18 -15 -2 -9 10 3 21 6 23 6 2 0 4 9 4 20 0 11 -5 20
-11 20 -8 0 -10 17 -6 54 5 54 -3 76 -29 76 -7 0 -16 -5 -19 -11z"/>
<path d="M5681 6294 c0 -11 3 -14 6 -6 3 7 2 16 -1 19 -3 4 -6 -2 -5 -13z"/>
<path d="M3861 6260 c-23 -20 -23 -20 -2 -20 24 0 27 -10 9 -29 -7 -8 2 -5 20
5 17 10 32 22 32 27 0 4 -4 5 -10 2 -9 -6 -14 8 -11 28 2 12 -13 7 -38 -13z"/>
<path d="M3685 6239 c0 -34 1 -35 14 -10 8 13 7 22 -2 29 -9 8 -12 3 -12 -19z"/>
<path d="M5684 6170 c0 -58 1 -81 3 -52 2 28 2 76 0 105 -2 28 -3 5 -3 -53z"/>
<path d="M2582 6224 c-18 -12 -22 -24 -21 -62 l0 -47 14 49 c7 27 21 56 31 63
25 19 3 16 -24 -3z"/>
<path d="M5362 6210 c0 -19 2 -27 5 -17 2 9 2 25 0 35 -3 9 -5 1 -5 -18z"/>
<path d="M2710 6226 c0 -2 8 -10 18 -17 15 -13 16 -12 3 4 -13 16 -21 21 -21
13z"/>
<path d="M5305 6181 c-5 -39 -14 -57 -37 -76 -16 -14 -24 -25 -18 -25 25 0 57
48 64 94 4 26 5 50 3 53 -3 2 -8 -18 -12 -46z"/>
<path d="M3382 6185 c0 -16 2 -22 5 -12 2 9 2 23 0 30 -3 6 -5 -1 -5 -18z"/>
<path d="M3631 6184 c0 -11 3 -14 6 -6 3 7 2 16 -1 19 -3 4 -6 -2 -5 -13z"/>
<path d="M5351 6144 c0 -11 3 -14 6 -6 3 7 2 16 -1 19 -3 4 -6 -2 -5 -13z"/>
<path d="M5315 6082 c-22 -26 -24 -32 -9 -22 20 13 49 49 42 54 -2 2 -16 -13
-33 -32z"/>
<path d="M3650 6103 c0 -26 183 -321 210 -338 5 -3 -22 43 -62 102 -39 59 -89
140 -110 178 -21 39 -38 65 -38 58z"/>
<path d="M4280 6050 c17 -22 37 -43 43 -47 6 -4 -6 14 -27 40 -21 26 -40 47
-43 47 -3 0 10 -18 27 -40z"/>
<path d="M3351 6049 c-6 -18 -11 -37 -10 -43 0 -6 7 7 15 28 8 22 12 41 10 43
-2 2 -9 -10 -15 -28z"/>
<path d="M1189 6033 c-13 -16 -12 -17 4 -4 16 13 21 21 13 21 -2 0 -10 -8 -17
-17z"/>
<path d="M5697 6039 c7 -7 15 -10 18 -7 3 3 -2 9 -12 12 -14 6 -15 5 -6 -5z"/>
<path d="M4270 6026 c0 -5 81 -110 181 -233 99 -124 183 -231 186 -239 3 -8 9
-12 14 -9 4 3 -73 108 -172 233 -192 241 -209 261 -209 248z"/>
<path d="M2177 5928 c45 -50 72 -97 103 -181 16 -41 31 -61 66 -86 25 -18 73
-58 107 -89 34 -31 53 -47 43 -34 -27 31 -15 37 28 11 20 -11 36 -18 36 -15 0
3 -38 26 -84 52 -90 50 -173 123 -182 160 -8 32 0 60 17 56 8 -2 12 -2 9 0 -3
2 -45 42 -95 88 -49 47 -71 64 -48 38z"/>
<path d="M3306 5925 c-9 -26 -7 -32 5 -12 6 10 9 21 6 23 -2 3 -7 -2 -11 -11z"/>
<path d="M5774 5873 l-22 -54 44 -41 c30 -28 43 -47 39 -57 -5 -12 -3 -13 5
-5 16 16 0 44 -44 78 l-35 26 20 46 c11 25 19 49 17 54 -2 4 -13 -16 -24 -47z"/>
<path d="M4409 5892 c5 -10 18 -25 27 -33 11 -9 9 -2 -6 19 -26 35 -36 42 -21
14z"/>
<path d="M2538 5813 c7 -3 16 -2 19 1 4 3 -2 6 -13 5 -11 0 -14 -3 -6 -6z"/>
<path d="M1250 5778 c-8 -18 -38 -82 -67 -142 -49 -100 -61 -136 -36 -104 15
19 125 270 120 275 -2 2 -10 -11 -17 -29z"/>
<path d="M2578 5803 c7 -3 16 -2 19 1 4 3 -2 6 -13 5 -11 0 -14 -3 -6 -6z"/>
<path d="M2618 5793 c7 -3 16 -2 19 1 4 3 -2 6 -13 5 -11 0 -14 -3 -6 -6z"/>
<path d="M2320 5786 c0 -2 8 -10 18 -17 15 -13 16 -12 3 4 -13 16 -21 21 -21
13z"/>
<path d="M2658 5783 c7 -3 16 -2 19 1 4 3 -2 6 -13 5 -11 0 -14 -3 -6 -6z"/>
<path d="M5215 5770 c-9 -15 4 -30 26 -30 12 0 19 7 19 20 0 21 -33 29 -45 10z"/>
<path d="M2899 5753 c-13 -16 -12 -17 4 -4 16 13 21 21 13 21 -2 0 -10 -8 -17
-17z"/>
<path d="M2822 5721 c28 -18 48 -39 51 -53 3 -17 5 -14 6 11 0 19 -2 32 -5 29
-3 -4 -22 5 -41 18 -20 13 -41 24 -46 24 -6 0 10 -13 35 -29z"/>
<path d="M3870 5746 c0 -2 8 -10 18 -17 15 -13 16 -12 3 4 -13 16 -21 21 -21
13z"/>
<path d="M3930 5670 c72 -92 300 -317 300 -296 0 3 -75 81 -167 173 -93 92
-152 147 -133 123z"/>
<path d="M5308 5612 c3 -25 6 -27 44 -24 49 5 73 -13 37 -27 -14 -6 -17 -10
-8 -10 21 -1 39 18 32 35 -3 9 -21 14 -49 14 -37 0 -44 3 -44 20 0 11 -4 20
-8 20 -5 0 -7 -12 -4 -28z"/>
<path d="M2881 5614 c0 -11 3 -14 6 -6 3 7 2 16 -1 19 -3 4 -6 -2 -5 -13z"/>
<path d="M2210 5616 c0 -2 8 -10 18 -17 15 -13 16 -12 3 4 -13 16 -21 21 -21
13z"/>
<path d="M3439 5594 c-7 -9 -14 -21 -15 -28 -1 -6 -3 -15 -5 -21 -2 -5 0 -10
6 -10 5 0 8 7 6 15 -1 8 0 12 5 8 9 -9 34 10 34 26 0 6 -5 3 -11 -7 -6 -9 -15
-15 -20 -11 -6 3 0 14 12 25 12 10 17 19 12 19 -6 0 -17 -7 -24 -16z"/>
<path d="M1220 5482 c-48 -113 -125 -255 -190 -352 -79 -116 -83 -125 -66
-139 12 -10 37 31 140 232 115 223 162 325 153 333 -2 2 -18 -31 -37 -74z
m-223 -439 c-8 -16 -16 -35 -19 -43 -2 -8 -7 -10 -10 -4 -4 5 3 24 14 42 25
39 34 42 15 5z"/>
<path d="M5756 5550 c-58 -7 -87 -27 -63 -42 18 -12 49 -9 77 5 14 8 31 12 38
9 24 -8 11 -31 -24 -42 -31 -11 -35 -15 -32 -43 2 -19 -2 -31 -10 -33 -7 -1
-8 0 -3 2 5 3 1 14 -11 26 l-20 20 -22 -21 c-18 -19 -19 -23 -6 -32 9 -5 40
-7 73 -3 47 5 57 3 57 -9 0 -20 -21 -27 -80 -27 -101 0 -132 42 -69 94 25 21
27 26 12 26 -11 0 -24 5 -31 12 -8 8 -12 9 -12 1 0 -6 5 -13 12 -15 8 -3 7
-11 -5 -28 -19 -27 -22 -65 -7 -75 18 -11 11 -22 -42 -59 -29 -20 -49 -36 -46
-36 12 0 74 30 103 50 20 13 46 20 81 20 45 0 52 -3 58 -22 13 -48 7 -68 -18
-68 -18 0 -25 6 -28 23 -2 16 -10 22 -28 22 -20 0 -26 -6 -28 -27 -3 -22 -9
-28 -35 -31 -31 -4 -31 -4 6 -5 35 -2 37 0 37 28 0 23 4 30 20 30 15 0 20 -7
20 -28 l0 -28 53 7 c66 9 77 -1 53 -46 -23 -42 -51 -48 -43 -9 3 19 1 24 -10
20 -8 -3 -16 -6 -17 -6 -1 0 -1 -13 2 -30 4 -31 26 -38 62 -22 21 10 32 127
13 141 -5 3 -8 52 -9 109 0 63 -5 107 -12 114 -17 17 -15 26 6 31 25 7 -4 6
-72 -3z"/>
<path d="M5311 5523 c0 -16 4 -37 9 -48 6 -14 7 -7 3 22 -4 34 -2 42 13 46 16
4 15 5 -3 6 -19 1 -23 -4 -22 -26z"/>
<path d="M5616 5533 c5 -5 12 -12 15 -16 3 -5 9 -2 12 7 5 12 0 16 -15 16 -12
0 -17 -3 -12 -7z"/>
<path d="M2900 5501 c0 -5 7 -14 15 -21 21 -18 19 -30 -7 -31 -14 -1 -7 -5 16
-10 22 -5 44 -7 50 -5 6 2 3 5 -6 5 -10 1 -18 5 -18 11 0 5 -11 20 -25 34 -14
14 -25 21 -25 17z"/>
<path d="M2760 5490 c8 -5 22 -9 30 -9 10 0 8 3 -5 9 -27 12 -43 12 -25 0z"/>
<path d="M5237 5483 c-4 -3 -7 -15 -7 -25 0 -28 34 -19 38 10 3 21 -16 31 -31
15z m15 -25 c-7 -7 -12 -8 -12 -2 0 14 12 26 19 19 2 -3 -1 -11 -7 -17z"/>
<path d="M3032 5450 c-18 -17 -26 -30 -19 -30 15 0 36 16 56 43 21 27 -1 19
-37 -13z"/>
<path d="M5321 5414 c0 -11 3 -14 6 -6 3 7 2 16 -1 19 -3 4 -6 -2 -5 -13z"/>
<path d="M5289 5364 c-23 -25 -23 -26 -2 -13 13 7 25 19 27 26 8 19 2 16 -25
-13z"/>
<path d="M3180 5336 c0 -2 8 -10 18 -17 15 -13 16 -12 3 4 -13 16 -21 21 -21
13z"/>
<path d="M4940 5309 c-42 -19 -44 -21 -26 -34 11 -8 15 -19 10 -26 -5 -9 -10
-6 -15 9 -5 12 -13 22 -19 22 -15 0 -12 -15 8 -41 l19 -22 30 44 c35 52 45 69
41 69 -2 0 -23 -10 -48 -21z"/>
<path d="M4964 5258 c-21 -28 -43 -53 -49 -55 -5 -1 -20 11 -31 28 -12 17 -24
27 -27 22 -3 -4 10 -25 29 -46 36 -39 44 -44 44 -26 0 5 18 37 40 70 50 73 46
77 -6 7z"/>
<path d="M3238 5262 c19 -23 39 -45 45 -49 7 -4 -3 12 -21 35 -19 23 -39 45
-45 49 -7 4 3 -12 21 -35z"/>
<path d="M5010 5254 c-11 -13 -9 -19 16 -42 l28 -27 -23 27 c-20 23 -22 30
-11 43 7 8 10 15 7 15 -2 0 -10 -7 -17 -16z"/>
<path d="M5584 5236 c-3 -8 -4 -27 -2 -43 3 -23 5 -20 9 15 5 43 2 53 -7 28z"/>
<path d="M1207 5173 c-15 -37 -41 -114 -59 -171 -22 -70 -36 -101 -45 -98 -27
11 -11 -4 30 -29 51 -29 69 -33 38 -7 l-22 17 20 100 c11 55 31 133 45 174 33
94 27 105 -7 14z"/>
<path d="M2559 5219 l-24 -20 28 17 c15 9 27 18 27 20 0 8 -8 4 -31 -17z"/>
<path d="M4816 5221 c-11 -17 72 -111 97 -111 13 0 30 -6 38 -12 11 -11 12
-11 3 0 -8 9 -5 25 12 60 31 63 30 80 -1 20 -14 -26 -29 -49 -34 -52 -4 -3
-28 19 -52 49 -44 56 -53 62 -63 46z"/>
<path d="M5658 5203 c-18 -3 -28 -11 -30 -26 -2 -15 -10 -22 -24 -22 -12 -1
-28 -6 -36 -12 -9 -8 -19 -9 -28 -3 -8 6 -19 10 -25 10 -5 0 -3 -5 5 -10 13
-9 13 -10 0 -10 -8 0 12 -15 46 -33 72 -39 116 -72 107 -80 -3 -4 0 -13 7 -22
11 -13 10 -19 -4 -34 -10 -11 -30 -24 -45 -30 -28 -12 -37 -50 -16 -69 15 -14
84 -22 90 -11 4 5 -13 9 -39 9 -25 0 -48 5 -51 10 -9 15 14 41 29 33 6 -3 8
-2 3 2 -7 8 73 65 92 65 13 0 41 -41 36 -51 -3 -4 2 -9 10 -13 27 -10 16 -33
-32 -65 l-48 -31 36 0 c62 0 96 -57 68 -113 -10 -21 -10 -21 5 -3 32 40 14 99
-35 120 l-29 12 30 22 30 23 10 -26 c6 -15 10 -32 10 -39 0 -7 7 -13 16 -13
10 0 14 7 11 18 -3 10 0 20 6 22 7 2 6 10 -2 23 -10 15 -11 15 -7 2 3 -10 2
-18 -2 -18 -13 0 -32 23 -32 38 0 8 -9 27 -21 44 -12 16 -19 31 -17 34 3 2 18
-14 33 -36 28 -41 43 -54 26 -22 -5 9 -21 32 -35 51 -33 44 -33 86 -1 134 l26
37 -31 0 -30 0 0 -64 c0 -72 -13 -86 -64 -67 -33 13 -34 31 -1 31 23 0 25 4
25 45 0 41 -2 45 -25 45 -29 0 -32 -12 -8 -31 15 -12 16 -12 10 4 -3 9 -2 17
3 17 13 0 13 -16 0 -41 -16 -28 -36 -23 -60 16 -18 29 -28 35 -56 35 -26 0
-32 3 -28 15 4 10 20 15 48 15 74 0 117 11 114 29 -1 9 1 22 5 29 8 12 -15 14
-75 5z m55 -23 c3 -12 0 -20 -8 -20 -7 0 -26 -3 -43 -6 -27 -6 -30 -4 -25 14
3 13 15 22 32 25 14 2 29 5 32 6 4 0 9 -8 12 -19z"/>
<path d="M4761 5165 c-17 -20 -31 -38 -31 -41 0 -2 29 -4 65 -2 l65 2 -33 35
c-17 20 -33 37 -33 39 -1 1 -15 -13 -33 -33z"/>
<path d="M3260 5186 c0 -2 7 -7 16 -10 8 -3 12 -2 9 4 -6 10 -25 14 -25 6z"/>
<path d="M3352 5160 c-18 -17 -29 -30 -24 -30 5 0 21 14 37 30 37 38 30 38
-13 0z"/>
<path d="M5857 5140 c-3 -11 -1 -20 4 -20 5 0 9 9 9 20 0 11 -2 20 -4 20 -2 0
-6 -9 -9 -20z"/>
<path d="M5165 5070 c10 -11 20 -20 23 -20 3 0 -3 9 -13 20 -10 11 -20 20 -23
20 -3 0 3 -9 13 -20z"/>
<path d="M5130 4973 c30 -35 56 -63 58 -63 7 0 -56 75 -84 100 -15 14 -3 -3
26 -37z"/>
<path d="M4894 5011 c44 -5 63 -12 77 -30 10 -13 19 -19 19 -13 0 26 -53 52
-104 51 l-51 -2 59 -6z"/>
<path d="M1422 4965 c0 -16 2 -22 5 -12 2 9 2 23 0 30 -3 6 -5 -1 -5 -18z"/>
<path d="M5240 4976 c0 -2 8 -10 18 -17 15 -13 16 -12 3 4 -13 16 -21 21 -21
13z"/>
<path d="M3970 4961 c0 -9 30 -24 36 -18 2 1 -6 8 -16 15 -11 7 -20 8 -20 3z"/>
<path d="M863 4934 c18 -21 17 -23 -44 -110 -33 -49 -84 -116 -112 -149 l-50
-60 45 44 c26 24 51 41 56 37 6 -3 18 14 28 38 10 24 22 43 25 40 4 -2 6 4 5
14 0 9 4 16 11 15 7 -2 10 3 8 10 -3 7 9 29 26 50 31 38 32 38 53 20 26 -24
64 -51 51 -37 -28 30 -117 106 -102 88z"/>
<path d="M3589 4892 c17 -22 38 -45 48 -53 10 -8 -2 10 -26 39 -51 60 -68 71
-22 14z"/>
<path d="M3015 4888 c-61 -27 -84 -32 -180 -35 -60 -2 -122 -9 -137 -15 -40
-15 -96 -82 -128 -152 -16 -34 -42 -80 -59 -104 -43 -58 -142 -129 -210 -149
-35 -10 -49 -18 -37 -21 31 -7 166 69 221 123 29 30 64 79 83 120 78 163 104
181 279 187 98 4 128 9 156 25 l34 21 67 -29 67 -29 -3 43 c-3 41 -3 42 -43
44 -27 1 -64 -8 -110 -29z m133 8 c13 -8 17 -50 5 -44 -5 2 -28 12 -53 23 -42
18 -43 20 -20 25 31 8 52 6 68 -4z"/>
<path d="M5708 4903 c12 -2 30 -2 40 0 9 3 -1 5 -23 4 -22 0 -30 -2 -17 -4z"/>
<path d="M4851 4872 c-6 -2 -16 -13 -23 -25 -11 -22 -11 -22 10 -4 13 13 32
18 56 16 19 -2 38 -1 41 3 7 7 -68 15 -84 10z"/>
<path d="M890 4768 c-50 -129 -71 -224 -77 -339 -6 -118 4 -142 32 -79 10 22
21 40 24 40 4 0 5 29 3 65 -5 81 13 233 39 322 10 37 17 68 15 70 -2 2 -18
-33 -36 -79z"/>
<path d="M5632 4812 c-36 -30 -39 -43 -17 -62 9 -8 13 -21 10 -34 -4 -15 -1
-13 10 7 22 39 74 41 112 5 21 -20 23 -20 29 -3 18 46 -44 68 -111 41 -20 -9
-41 -13 -46 -10 -11 6 -12 34 -1 34 11 1 68 50 57 50 -5 0 -25 -13 -43 -28z
m128 -57 c19 -23 9 -25 -25 -4 -26 17 -27 19 -9 19 12 0 27 -7 34 -15z"/>
<path d="M3958 4823 c7 -3 16 -2 19 1 4 3 -2 6 -13 5 -11 0 -14 -3 -6 -6z"/>
<path d="M1346 4783 c-6 -14 -5 -15 5 -6 7 7 10 15 7 18 -3 3 -9 -2 -12 -12z"/>
<path d="M4157 4782 c-27 -30 -20 -35 38 -28 54 6 56 5 103 -35 l47 -42 -52
51 c-44 44 -57 52 -90 52 -28 0 -34 3 -23 10 8 5 10 10 4 10 -6 0 -18 -8 -27
-18z"/>
<path d="M4228 4793 c7 -3 16 -2 19 1 4 3 -2 6 -13 5 -11 0 -14 -3 -6 -6z"/>
<path d="M4991 4773 c-10 -26 -10 -27 4 -9 8 11 15 23 15 28 0 15 -7 8 -19
-19z"/>
<path d="M1075 4761 c-1 -14 -4 -46 -9 -71 l-7 -45 25 53 c31 64 32 78 9 84
-14 4 -18 -1 -18 -21z"/>
<path d="M4750 4775 c-7 -9 -11 -17 -9 -20 3 -2 10 5 17 15 14 24 10 26 -8 5z"/>
<path d="M4340 4745 c13 -14 26 -25 28 -25 3 0 -5 11 -18 25 -13 14 -26 25
-28 25 -3 0 5 -11 18 -25z"/>
<path d="M5842 4740 c0 -14 2 -19 5 -12 2 6 2 18 0 25 -3 6 -5 1 -5 -13z"/>
<path d="M1180 4740 c8 -5 20 -10 25 -10 6 0 3 5 -5 10 -8 5 -19 10 -25 10 -5
0 -3 -5 5 -10z"/>
<path d="M5480 4746 c0 -2 8 -10 18 -17 15 -13 16 -12 3 4 -13 16 -21 21 -21
13z"/>
<path d="M5570 4705 c13 -14 26 -25 28 -25 3 0 -5 11 -18 25 -13 14 -26 25
-28 25 -3 0 5 -11 18 -25z"/>
<path d="M5675 4711 c-3 -5 4 -13 16 -16 23 -8 34 -1 24 14 -8 13 -32 14 -40
2z"/>
<path d="M5841 4694 c0 -11 3 -14 6 -6 3 7 2 16 -1 19 -3 4 -6 -2 -5 -13z"/>
<path d="M4682 4645 c-35 -50 -43 -75 -11 -35 21 26 52 80 46 80 -2 0 -18 -20
-35 -45z"/>
<path d="M5642 4674 c10 -10 20 -16 22 -13 3 3 -5 11 -17 18 -21 13 -21 12 -5
-5z"/>
<path d="M4190 4664 c-17 -10 -18 -13 -5 -8 11 3 26 7 33 7 6 0 12 4 12 9 0
12 -11 9 -40 -8z"/>
<path d="M5615 4648 c9 -15 21 -25 26 -22 8 4 73 -5 162 -22 16 -3 24 -10 21
-16 -5 -7 -2 -8 7 -2 8 4 24 7 37 5 12 -1 22 2 22 8 0 6 -9 11 -20 11 -11 0
-23 7 -27 16 -4 12 -8 13 -13 3 -11 -17 -188 7 -214 30 -19 16 -19 15 -1 -11z"/>
<path d="M5589 4636 c27 -29 33 -32 25 -13 -2 7 -14 19 -27 26 -21 13 -21 12
2 -13z"/>
<path d="M5693 4653 c9 -2 25 -2 35 0 9 3 1 5 -18 5 -19 0 -27 -2 -17 -5z"/>
<path d="M3931 4626 c2 -2 18 -6 34 -10 22 -5 26 -4 15 4 -14 9 -59 15 -49 6z"/>
<path d="M624 4578 l-19 -23 23 19 c21 18 27 26 19 26 -2 0 -12 -10 -23 -22z"/>
<path d="M4400 4575 c0 -5 5 -17 10 -25 5 -8 10 -10 10 -5 0 6 -5 17 -10 25
-5 8 -10 11 -10 5z"/>
<path d="M4080 4549 c-22 -18 -22 -19 -3 -10 12 6 25 16 28 21 9 15 3 12 -25
-11z"/>
<path d="M3982 4534 c8 -9 23 -14 33 -12 12 2 7 7 -16 15 -30 12 -32 11 -17
-3z"/>
<path d="M4572 4530 c-13 -11 -22 -24 -20 -29 1 -5 15 4 29 20 30 33 25 38 -9
9z"/>
<path d="M4197 4437 c-20 -25 -21 -33 -4 -43 6 -4 9 -4 5 1 -4 4 -3 16 3 27
10 19 11 19 37 -4 l27 -23 -25 30 c-14 17 -25 31 -25 32 0 1 -8 -8 -18 -20z"/>
<path d="M5700 4426 c0 -31 6 -34 13 -6 3 11 1 23 -4 26 -5 3 -9 -6 -9 -20z"/>
<path d="M2075 4426 c-22 -7 -54 -20 -70 -28 -33 -17 -126 -119 -192 -208 -47
-65 -62 -79 -100 -90 -25 -7 -25 -8 -5 -9 14 -1 41 16 71 44 l48 45 6 -202 c3
-134 10 -221 20 -256 16 -60 21 -56 -50 -36 -22 6 -23 4 -22 -42 l2 -49 6 40
c5 33 10 39 26 37 11 -2 25 -10 32 -19 6 -8 17 -12 24 -8 7 5 10 3 7 -6 -3 -8
-21 -18 -42 -24 l-37 -11 34 -12 c42 -15 50 -15 44 1 -2 6 2 19 9 27 11 13 11
23 -2 60 -12 36 -15 79 -12 205 5 189 -1 310 -13 280 -6 -16 -8 -12 -8 16 -1
33 30 92 41 79 7 -8 46 -190 59 -275 9 -61 18 -87 38 -110 14 -16 18 -23 9
-16 -19 14 -18 17 -22 -41 -1 -13 2 -45 7 -73 5 -27 9 -60 10 -72 1 -12 5 -19
9 -17 4 3 8 -11 8 -31 0 -25 -4 -34 -12 -29 -6 4 -8 3 -4 -4 3 -6 -2 -16 -11
-22 -14 -8 -12 -9 12 -4 42 9 67 23 60 35 -4 5 -12 6 -18 2 -8 -5 -8 -2 0 9 7
8 11 17 9 19 -2 2 -7 52 -10 112 l-7 107 36 -4 c63 -8 79 -26 113 -130 18 -52
32 -101 32 -109 0 -8 6 -20 14 -26 8 -7 20 -43 27 -80 l12 -69 -32 -29 -33
-28 16 -66 c18 -78 14 -106 -22 -173 -24 -44 -32 -51 -75 -61 -59 -15 -85 -38
-93 -84 -10 -57 -50 -109 -117 -152 -67 -44 -81 -68 -71 -129 5 -32 -1 -44
-61 -125 -207 -278 -336 -561 -430 -950 -71 -292 -181 -594 -360 -990 -91
-203 -103 -236 -36 -102 27 54 51 94 55 89 3 -5 2 -12 -1 -16 -13 -13 -11 -35
5 -48 15 -11 15 -11 5 3 -7 9 -9 19 -5 23 4 4 7 13 7 19 1 7 6 11 13 10 7 -2
11 0 9 5 -1 4 3 7 8 7 6 0 9 -4 7 -10 -2 -5 5 -2 16 8 10 9 22 15 25 12 4 -3
5 -2 2 1 -2 4 6 21 19 38 13 17 21 37 18 45 -3 10 0 11 9 5 11 -6 10 -3 -1 11
-8 10 -10 16 -4 12 10 -6 41 58 36 75 -1 5 2 8 7 8 5 0 28 44 51 97 24 54 52
116 63 138 12 22 22 42 22 45 6 22 19 39 26 34 5 -3 6 2 3 10 -7 18 82 247
146 376 50 101 75 169 85 238 4 26 11 40 18 35 7 -4 8 0 3 12 -5 15 -4 16 8 6
12 -10 13 -9 9 8 -3 12 0 27 6 34 6 8 7 18 3 22 -4 5 -1 5 6 1 11 -7 17 12 13
37 -1 5 2 6 7 3 4 -3 1 -34 -7 -69 -9 -36 -20 -63 -25 -59 -5 3 -6 -1 -1 -8 5
-7 7 -42 6 -77 -1 -34 0 -63 2 -63 5 0 118 251 121 270 1 3 48 97 105 210 96
189 231 421 287 496 22 30 25 31 58 20 19 -6 33 -13 30 -17 -5 -9 23 -20 74
-29 56 -9 60 1 33 84 -12 36 -21 67 -21 70 0 8 27 -3 111 -44 63 -31 75 -40
67 -54 -5 -9 -14 -13 -20 -10 -6 4 -8 3 -5 -4 4 -5 -41 -99 -99 -209 -120
-222 -202 -391 -276 -568 -28 -66 -53 -122 -55 -125 -10 -9 9 45 42 122 18 43
29 76 25 73 -5 -3 -22 -40 -40 -83 -54 -132 -103 -232 -110 -227 -5 3 -15 -14
-23 -37 -9 -24 -39 -104 -67 -178 -28 -74 -60 -164 -70 -200 -10 -36 -23 -78
-30 -95 -6 -16 -14 -50 -16 -75 -3 -25 -6 -57 -7 -72 -2 -15 1 -25 5 -22 4 3
8 -2 8 -11 0 -10 -5 -13 -12 -9 -7 4 -8 3 -4 -5 4 -6 11 -9 16 -6 10 6 5 -31
-7 -49 -4 -7 0 -3 10 8 11 12 17 30 14 44 -3 15 -1 20 5 14 7 -7 6 -29 -2 -64
-85 -386 -130 -619 -119 -612 4 2 12 26 19 54 7 27 16 50 22 50 5 0 7 4 3 9
-3 5 -2 12 3 15 14 8 10 -28 -5 -42 -16 -16 -17 -29 -3 -37 6 -3 7 1 4 10 -4
10 -2 15 7 13 7 -2 14 2 14 7 4 35 18 75 28 75 6 0 2 7 -9 16 -10 8 -13 13 -6
9 6 -3 12 0 12 7 0 9 3 9 10 -2 7 -12 9 -10 7 7 0 12 -5 19 -10 16 -5 -3 -3 5
4 18 8 13 14 31 15 39 1 8 7 42 13 75 6 33 13 76 16 95 16 93 134 536 187 700
51 157 98 270 113 270 5 0 33 -99 39 -144 4 -21 19 -77 35 -125 21 -61 29
-103 28 -143 -1 -31 1 -54 6 -51 4 2 7 -15 7 -39 1 -39 11 -121 51 -386 7 -45
14 -80 16 -78 3 2 -8 94 -23 203 -55 390 -33 705 81 1174 58 235 158 554 184
581 3 4 4 -22 3 -58 -3 -50 2 -86 22 -147 76 -244 167 -558 180 -620 14 -67
34 -143 86 -337 11 -41 19 -88 18 -104 -3 -25 -17 -1 -85 135 -111 219 -163
400 -163 561 0 93 -25 209 -61 279 -16 32 -33 60 -38 63 -4 3 -14 -16 -21 -42
-6 -26 -18 -65 -25 -87 -8 -22 -23 -76 -34 -120 -11 -44 -40 -154 -64 -245
-25 -91 -50 -208 -57 -260 -15 -109 -19 -462 -6 -564 10 -85 25 -70 25 24 0
36 3 79 6 95 4 17 13 64 20 105 7 41 20 95 28 120 8 25 23 72 32 105 21 70 34
55 25 -29 -6 -55 -5 -98 5 -216 3 -41 8 -102 10 -135 2 -33 5 -61 6 -62 1 -2
3 -7 4 -13 1 -5 4 -13 5 -17 1 -5 2 -12 1 -16 -1 -5 3 -6 8 -3 10 7 9 25 -2
42 -4 7 -1 17 6 22 10 9 13 3 12 -26 0 -20 -4 -44 -9 -52 -8 -12 -7 -13 5 -3
9 7 20 8 29 3 8 -5 17 -7 21 -4 10 6 5 -24 -6 -33 -4 -4 -5 -3 -1 4 9 16 -13
28 -27 14 -9 -9 -7 -10 7 -5 13 5 17 4 12 -4 -3 -6 -2 -13 4 -17 6 -4 8 -10 6
-14 -3 -4 7 -7 22 -8 26 -2 26 -1 5 7 -13 5 -23 11 -23 14 0 2 10 2 23 -1 18
-4 19 -3 7 7 -10 8 -11 10 -2 8 8 -2 13 -7 12 -12 -2 -12 21 -25 39 -21 12 2
16 -6 18 -34 1 -28 -1 -31 -7 -16 -8 17 -8 16 -7 -7 1 -21 4 -24 14 -16 8 7
13 7 13 0 0 -15 -26 -33 -36 -24 -4 4 -2 -1 5 -10 16 -21 22 -23 18 -6 -1 7 4
12 10 11 7 -2 12 0 10 5 -1 4 3 7 8 7 6 0 9 -4 7 -8 -1 -5 2 -6 8 -2 6 3 8 11
5 16 -4 5 -1 9 4 9 6 0 11 -6 11 -12 0 -9 4 -8 11 2 8 12 9 11 6 -5 -2 -11 -9
-19 -16 -17 -7 1 -10 -2 -6 -8 9 -14 35 6 35 27 0 8 5 11 10 8 6 -4 7 -11 4
-17 -4 -7 -2 -8 5 -4 6 4 9 11 6 15 -2 5 4 16 15 26 19 17 28 9 13 -11 -5 -5
2 2 14 16 13 14 23 32 22 40 0 10 -3 8 -9 -5 -8 -18 -9 -18 -8 5 0 14 -3 34
-7 45 -4 15 1 27 17 40 l23 20 -18 -22 c-19 -22 -16 -63 4 -63 13 0 11 -44 -3
-60 -11 -12 -10 -12 3 -2 12 9 19 9 29 -1 12 -10 12 -9 2 5 -16 20 -12 95 5
110 7 5 11 14 8 18 -3 5 -1 11 4 14 19 12 20 -12 1 -29 -11 -10 -17 -22 -14
-27 3 -4 13 0 22 10 9 10 13 13 9 6 -4 -7 -7 -16 -6 -20 1 -5 -1 -17 -6 -27
-4 -11 -3 -23 3 -29 8 -8 9 -4 6 13 -5 20 -4 21 6 9 10 -13 11 -12 6 4 -5 14
-2 17 11 12 17 -6 17 -5 1 8 -19 14 -25 32 -9 21 11 -6 5 39 -10 69 -10 21
-10 21 7 1 16 -20 16 -20 11 3 -3 12 -1 20 4 16 5 -3 9 2 9 11 0 10 -5 13 -12
9 -7 -4 -8 -3 -4 5 8 12 26 6 26 -9 0 -5 5 -21 12 -37 6 -15 10 -32 9 -38 -2
-5 1 -6 5 -2 11 11 14 38 3 31 -5 -3 -9 5 -9 18 0 22 0 22 14 2 8 -11 18 -34
22 -50 4 -16 15 -46 26 -67 10 -21 16 -43 12 -49 -4 -6 -3 -8 3 -5 6 4 33 -37
64 -94 29 -56 58 -107 64 -113 11 -11 74 -111 107 -170 39 -71 104 -138 98
-101 -1 6 -6 9 -10 8 -4 -1 -14 5 -22 15 -11 15 -11 16 3 5 12 -10 18 -10 28
0 7 6 11 8 9 2 -2 -5 2 -10 7 -10 6 0 9 4 7 8 -1 5 2 6 7 3 5 -3 13 0 18 7 12
14 -9 61 -22 49 -5 -4 -1 5 8 20 23 36 21 49 -2 21 -18 -22 -27 -18 -32 15 0
4 -5 12 -10 18 -5 7 -4 11 5 11 7 0 13 -7 12 -16 -1 -9 4 -16 9 -16 6 0 9 3 8
7 -2 5 1 7 6 5 5 -1 9 3 9 8 0 6 -3 9 -7 8 -4 -1 -7 7 -7 18 0 19 1 18 17 -3
10 -12 15 -26 13 -30 -3 -4 0 -8 7 -8 7 0 10 -3 6 -6 -3 -3 5 -18 19 -32 13
-15 24 -35 24 -45 0 -11 4 -15 12 -11 7 4 8 3 4 -4 -4 -7 -2 -12 3 -12 6 0 11
-5 11 -11 0 -5 -4 -8 -8 -5 -5 3 -9 -1 -9 -9 0 -11 4 -12 13 -4 9 8 16 4 25
-13 7 -13 12 -27 10 -33 -1 -5 1 -7 5 -2 4 4 34 -34 67 -85 49 -78 95 -140 75
-103 -15 28 -210 348 -242 398 -20 31 -34 63 -30 69 5 7 3 8 -6 3 -10 -6 -12
-4 -7 8 3 9 1 19 -5 23 -7 5 -8 2 -3 -6 5 -8 4 -11 -3 -6 -6 4 -9 12 -6 19 2
7 -21 55 -52 107 -93 156 -137 255 -125 278 6 11 9 21 8 24 -1 2 8 -7 21 -20
31 -33 38 -22 10 14 -12 16 -15 23 -7 17 9 -7 18 -11 21 -8 2 3 5 -1 5 -7 0
-7 2 -20 4 -28 3 -9 -3 -15 -15 -15 -20 0 -31 -41 -14 -51 4 -3 5 -10 2 -16
-4 -6 -2 -8 4 -4 6 3 9 18 6 32 -3 18 -1 25 8 21 7 -2 12 -10 11 -16 -2 -6 2
-10 9 -8 7 1 13 -4 14 -10 1 -7 3 -15 4 -18 1 -3 3 -9 4 -14 0 -5 4 -12 8 -15
5 -3 6 -3 3 1 -3 3 0 12 7 20 7 9 8 13 1 11 -6 -2 -11 2 -11 7 0 6 4 9 8 8 4
-1 6 8 3 20 -5 22 -5 22 10 2 8 -11 13 -24 10 -29 -4 -5 -1 -6 6 -2 6 4 9 11
6 16 -3 5 -1 11 5 15 15 9 0 27 -17 21 -11 -5 -13 -2 -9 10 3 8 6 21 6 27 0 7
9 -3 20 -21 11 -18 18 -38 14 -43 -3 -5 0 -8 6 -7 7 2 28 -19 46 -47 19 -27
40 -57 47 -65 7 -9 25 -34 41 -58 16 -23 33 -42 39 -42 6 0 7 -3 4 -7 -4 -3 3
-17 15 -30 17 -19 24 -21 36 -10 13 10 14 9 4 -8 -9 -18 -7 -21 10 -22 11 -1
28 -9 37 -17 14 -13 20 -13 30 -3 11 10 11 8 0 -9 l-12 -22 -17 21 c-14 17
-17 17 -17 4 0 -10 2 -15 5 -12 3 2 14 -7 24 -21 11 -14 22 -23 25 -20 3 3 16
-7 30 -22 13 -15 22 -22 19 -15 -4 6 -2 14 4 18 5 3 10 -2 11 -12 0 -14 2 -14
9 5 5 12 12 22 14 22 11 0 36 -61 30 -72 -4 -6 -3 -8 3 -5 6 4 33 -34 62 -85
46 -80 194 -276 221 -293 6 -4 -22 34 -62 85 -99 123 -155 219 -312 530 -144
286 -201 424 -242 577 -24 88 -25 103 -14 143 6 25 14 59 15 77 5 40 22 73 38
73 20 0 37 -22 37 -47 0 -12 9 -27 21 -33 45 -25 57 -102 30 -197 -5 -17 -7
-34 -3 -37 5 -6 -15 -10 -33 -6 -5 1 -1 -7 8 -18 10 -11 20 -32 23 -48 3 -23
2 -26 -7 -14 -9 13 -10 13 -5 0 3 -8 9 -23 12 -32 4 -10 11 -18 18 -18 6 0 4
-5 -4 -10 -12 -8 -12 -10 5 -11 l20 0 -20 -9 -20 -9 20 0 c11 -1 16 -5 10 -9
-12 -8 -13 -57 -2 -68 11 -12 8 -26 -5 -18 -7 5 -8 3 -4 -5 5 -7 11 -10 14 -7
3 3 15 -2 26 -11 14 -12 17 -13 9 -3 -8 10 -9 21 -3 30 9 14 11 13 14 -9 0 -5
5 -13 9 -18 5 -4 8 -3 7 2 -5 25 2 27 27 4 20 -18 24 -19 13 -4 -8 11 -19 23
-24 26 -4 4 -3 9 2 13 6 4 16 -3 23 -16 l12 -22 19 25 c11 13 25 24 32 24 6 1
10 6 9 13 -8 34 57 -11 187 -132 94 -87 128 -116 140 -116 5 0 10 -4 10 -10 0
-5 3 -9 8 -8 14 5 82 -44 76 -54 -4 -7 -2 -8 4 -4 7 4 28 -8 50 -28 20 -20 41
-36 45 -36 5 0 20 -11 35 -25 81 -73 251 -216 304 -253 l61 -43 -52 -48 c-52
-48 -120 -78 -167 -74 l-22 2 20 -42 c32 -65 35 -61 10 13 -4 12 -2 12 8 3 7
-6 19 -9 28 -6 10 4 13 2 8 -5 -3 -6 -2 -13 3 -16 4 -3 8 4 7 17 -1 13 4 21
12 19 8 -1 11 2 8 7 -3 5 1 11 8 14 10 4 14 0 11 -12 -2 -10 3 -18 11 -18 9 0
11 4 4 12 -14 17 10 34 34 26 17 -7 17 -8 3 -14 -8 -3 -18 -1 -21 6 -3 8 -5 8
-5 1 -1 -6 9 -19 21 -30 22 -19 22 -19 8 0 -14 18 -13 19 3 13 11 -4 16 -3 12
3 -3 6 -2 10 4 10 6 0 9 6 7 13 -1 6 -1 9 1 4 3 -4 8 -5 12 -2 5 2 16 -2 26
-9 14 -10 15 -15 5 -21 -9 -5 -11 -4 -6 3 4 7 2 12 -3 12 -6 0 -11 -6 -11 -12
0 -9 -4 -8 -11 2 -9 13 -10 13 -6 0 2 -8 10 -15 18 -15 8 -1 13 -7 11 -14 -1
-7 2 -10 8 -6 6 3 8 11 5 16 -4 5 -2 9 3 9 6 0 13 -7 16 -16 5 -13 9 -14 21
-4 14 12 20 7 16 -15 -1 -5 6 -2 15 7 17 17 19 17 43 -5 14 -12 20 -15 13 -6
-6 9 -9 19 -5 22 9 9 23 9 22 0 -3 -20 2 -24 15 -14 10 9 16 9 21 1 5 -8 10
-8 20 0 10 8 15 8 20 0 5 -8 10 -8 20 0 9 8 15 8 20 0 3 -6 11 -8 16 -5 5 4 9
0 9 -7 0 -7 11 4 25 25 14 20 29 37 32 37 4 0 2 -5 -5 -12 -16 -16 -15 -31 1
-21 18 11 38 13 31 2 -3 -5 0 -9 7 -9 7 0 9 8 6 21 -4 15 -3 19 5 11 5 -5 7
-20 3 -32 -5 -17 -10 -19 -21 -9 -10 8 -14 8 -14 0 0 -6 5 -11 11 -11 8 0 8
-5 -1 -17 -7 -10 -1 -6 13 9 17 18 27 23 30 15 4 -9 6 -9 6 1 1 7 5 10 11 7
21 -13 47 -13 47 1 0 10 -4 11 -14 3 -10 -9 -13 -7 -13 7 0 16 -2 17 -10 4 -9
-13 -10 -13 -10 0 0 13 -1 13 -10 0 -7 -12 -9 -10 -7 7 1 17 4 19 14 11 7 -6
13 -7 13 -3 0 4 7 1 17 -6 9 -8 18 -13 20 -11 9 6 23 1 18 -8 -4 -6 1 -7 11
-3 12 4 15 3 10 -5 -4 -7 -2 -10 7 -7 7 3 24 -4 37 -15 13 -11 25 -18 28 -15
7 6 12 2 -83 65 -44 29 -82 56 -85 60 -3 3 -21 17 -40 30 -55 39 -80 62 -74
71 3 5 -2 6 -10 3 -27 -10 -18 11 12 28 15 9 31 18 37 20 5 1 9 7 7 11 -5 16
33 2 50 -18 15 -19 17 -19 23 -3 4 10 11 15 17 12 5 -3 4 -13 -4 -22 -7 -10
-8 -14 -4 -10 5 4 16 2 25 -5 14 -10 14 -10 4 4 -7 9 -9 19 -5 23 4 4 8 12 8
17 3 22 6 23 13 5 7 -19 8 -19 13 0 6 25 -21 29 -39 5 -11 -14 -12 -14 -13 -1
0 13 -1 13 -10 0 -7 -10 -10 -11 -10 -2 0 8 -9 11 -25 8 l-26 -5 28 33 c15 18
30 31 32 30 2 -2 -4 -13 -14 -24 -10 -11 -13 -20 -7 -20 6 0 17 9 25 20 12 18
15 18 20 5 4 -8 11 -15 17 -15 6 0 8 6 4 13 -6 9 -5 9 8 0 8 -7 17 -10 20 -7
8 7 2 -51 -6 -65 -4 -6 -12 -9 -17 -6 -15 10 -10 -2 8 -16 9 -8 14 -9 11 -4
-4 6 3 22 14 35 13 16 18 19 14 8 -7 -24 1 -23 14 1 9 17 7 19 -9 16 -14 -3
-18 1 -14 12 5 12 7 12 14 1 7 -11 9 -10 9 1 0 19 11 8 14 -16 2 -10 -2 -25
-8 -33 -6 -8 -1 -6 12 4 26 23 29 11 5 -18 -17 -20 -17 -20 0 -7 10 8 22 22
28 32 7 14 6 17 -9 14 -14 -2 -18 3 -17 25 0 16 4 32 7 36 4 4 6 -2 4 -13 -3
-11 0 -26 5 -34 7 -12 9 -12 10 1 1 8 1 19 0 24 -1 5 4 4 12 -2 19 -16 30 -3
14 17 -10 14 -10 14 5 3 10 -8 15 -22 12 -38 -6 -30 4 -31 16 -1 7 18 9 18 9
4 1 -10 6 -15 11 -12 6 4 8 10 6 14 -3 4 1 8 9 8 8 0 13 -3 12 -6 -1 -3 3 -6
8 -6 6 0 9 3 8 6 -1 3 5 6 13 6 9 0 11 -4 5 -10 -11 -11 -3 -39 10 -31 5 3 7
10 4 15 -4 5 -1 9 4 9 12 0 9 -35 -4 -47 -4 -5 -5 -3 -1 4 4 8 0 11 -14 8 -11
-2 -24 3 -30 13 -8 14 -10 14 -11 2 -1 -8 -1 -18 0 -22 0 -5 -4 -8 -10 -8 -6
0 -8 9 -4 23 5 15 4 19 -3 12 -6 -5 -12 -19 -14 -30 -2 -15 2 -19 17 -17 11 2
17 1 13 -4 -4 -4 -3 -13 4 -21 9 -11 14 -11 29 3 21 19 26 5 9 -27 -6 -10 -8
-19 -6 -19 10 0 37 61 31 69 -3 5 1 11 7 13 9 3 14 40 18 119 5 109 18 159 41
159 5 0 28 -9 51 -20 22 -11 44 -17 49 -14 16 10 45 169 43 236 0 9 3 15 6 13
8 -5 51 110 70 182 13 53 1 87 -42 109 -64 33 -235 86 -468 145 -278 70 -307
80 -382 131 -31 21 -66 38 -78 38 -25 0 -76 25 -104 52 -12 11 -34 27 -51 35
-41 21 -185 124 -267 190 -77 61 -86 83 -33 83 27 0 42 -7 64 -32 l28 -31 74
38 c127 64 133 67 190 85 30 10 69 17 87 15 18 -1 35 1 38 6 3 5 2 9 -3 8 -4
-1 -10 0 -13 1 -20 7 -46 7 -62 -1 -10 -5 -52 -12 -93 -16 l-75 -6 0 31 c0 34
-44 122 -97 195 -31 42 -35 52 -25 68 14 22 9 24 -19 9 -26 -15 -24 4 4 24 12
9 3 6 -21 -6 l-43 -23 -20 25 c-11 14 -38 55 -60 92 -54 88 -98 127 -204 177
l-87 42 6 37 c3 20 8 78 11 127 10 174 17 270 22 310 6 46 6 38 -3 218 -4 75
-3 137 2 137 4 0 24 -15 44 -32 19 -18 29 -26 23 -18 -17 19 -16 30 1 30 12 0
11 12 -4 69 -17 69 -17 69 4 91 18 18 15 18 -18 -4 -44 -29 -55 -23 -48 24 3
23 12 32 36 40 l31 10 -32 -5 -33 -4 0 83 c0 84 0 84 34 110 19 14 37 26 40
26 3 0 19 -27 36 -59 16 -33 33 -61 38 -63 8 -3 33 -38 140 -195 24 -34 48
-63 53 -63 4 0 -9 25 -31 57 -22 31 -40 60 -40 64 0 4 -31 71 -69 148 -65 135
-72 157 -41 129 8 -7 -10 15 -38 49 l-52 61 42 -4 43 -3 -47 10 c-27 6 -48 16
-48 21 0 6 10 8 23 4 12 -3 49 -9 82 -12 52 -6 62 -4 78 14 30 33 32 91 7 146
l-23 48 -60 -69 c-97 -109 -333 -347 -447 -451 -127 -115 -220 -177 -320 -213
-70 -25 -77 -26 -105 -11 -85 43 -416 324 -643 546 -134 131 -151 151 -139
165 24 28 61 95 49 87 -7 -4 -21 -24 -31 -44 -46 -88 -120 -132 -223 -132 -93
-1 -135 -19 -221 -99 -69 -65 -112 -135 -101 -167 5 -16 3 -16 -14 3 -11 12
-22 45 -26 75 -7 49 -49 251 -62 290 -8 26 77 112 139 139 38 17 71 23 124 24
39 0 66 3 60 7 -18 12 -108 8 -152 -6z m2190 -214 c3 -12 3 -22 -2 -21 -19 3
-33 -3 -62 -27 -37 -31 -39 -44 -8 -45 12 0 17 -3 10 -5 -6 -3 -26 -1 -45 4
l-33 8 59 62 c60 63 68 65 81 24z m-1713 -100 c46 -46 71 -65 78 -58 6 6 10 6
10 1 0 -21 -102 -146 -141 -175 -50 -36 -39 -41 12 -6 27 19 82 81 126 145 2
3 14 -6 28 -19 25 -23 25 -23 41 -4 13 17 13 16 -1 -13 -21 -44 -164 -189
-200 -203 -56 -21 -115 -14 -202 24 -57 25 -112 41 -178 50 -106 14 -132 25
-64 27 36 1 39 2 19 8 -14 4 -24 13 -22 20 1 7 -3 19 -9 27 -10 12 0 14 57 15
78 1 75 6 -10 17 l-59 7 66 66 c69 70 134 109 181 109 20 0 31 -8 44 -31 46
-83 85 -139 93 -134 5 4 6 0 4 -7 -3 -8 6 -25 20 -38 14 -13 25 -19 25 -14 1
5 6 -1 14 -14 11 -20 14 -21 25 -9 9 12 9 17 0 23 -8 4 -9 3 -5 -4 4 -7 3 -12
-2 -12 -12 0 -23 27 -14 33 4 2 1 2 -5 1 -7 -2 -13 2 -13 9 0 8 -3 8 -9 -2 -7
-11 -10 -9 -16 8 -4 13 -4 25 -1 28 3 4 6 -1 6 -11 0 -9 5 -14 10 -11 6 4 7
12 3 18 -3 7 3 3 15 -7 15 -13 22 -15 22 -6 0 7 -31 46 -70 86 -38 41 -70 79
-70 84 0 6 12 10 28 10 15 1 38 7 52 15 14 8 29 14 34 15 5 0 40 -31 78 -68z
m1580 -140 c-7 -2 -12 -11 -12 -19 0 -9 -3 -14 -6 -10 -10 10 7 48 19 40 8 -5
8 -8 -1 -11z m-2124 -178 c-3 -27 -4 -26 -9 8 -3 22 -1 34 4 29 5 -5 7 -21 5
-37z m717 -5 c45 -41 78 -109 69 -142 -3 -14 -39 -59 -80 -99 -40 -40 -74 -77
-74 -83 0 -5 13 -17 29 -27 16 -9 37 -27 46 -41 15 -24 15 -28 -4 -65 -20 -40
-37 -52 -71 -52 -29 0 -33 -18 -10 -47 29 -38 11 -41 -58 -10 -31 14 -97 33
-146 41 -49 9 -91 18 -95 21 -7 8 28 36 89 71 78 46 174 121 206 161 41 50 50
70 57 119 6 37 3 45 -29 83 -38 44 -37 53 6 88 22 18 27 16 65 -18z m1272 -21
c-3 -7 -5 -2 -5 12 0 14 2 19 5 13 2 -7 2 -19 0 -25z m-16 -426 c-9 -38 -10
-25 -6 68 3 63 6 167 7 230 2 80 3 60 5 -68 2 -100 -1 -203 -6 -230z m-1666
380 c-3 -3 -11 0 -18 7 -9 10 -8 11 6 5 10 -3 15 -9 12 -12z m1722 -139 c1
-19 -1 -22 -8 -12 -11 17 -12 39 -1 39 4 0 8 -12 9 -27z m-1192 -224 c-8 -19
-12 -25 -9 -14 4 11 9 43 13 70 5 46 6 47 9 14 2 -20 -4 -52 -13 -70z m-331
-140 c-5 -9 1 -10 20 -5 20 5 26 4 20 -5 -5 -9 -2 -10 10 -6 9 4 15 3 13 -1
-3 -4 13 -18 34 -32 21 -13 39 -29 39 -36 0 -16 -81 -25 -206 -23 -85 1 -104
4 -100 15 3 8 2 14 -2 14 -4 0 -7 14 -7 30 0 35 4 37 111 49 38 5 70 9 72 10
2 0 0 -4 -4 -10z m257 -46 c-12 -20 -14 -14 -5 12 4 9 9 14 11 11 3 -2 0 -13
-6 -23z m-20 -50 c-12 -20 -14 -14 -5 12 4 9 9 14 11 11 3 -2 0 -13 -6 -23z
m-113 -30 c29 -3 48 -9 42 -13 -8 -5 3 -16 30 -31 38 -22 168 -170 199 -226
15 -30 -12 -91 -33 -74 -7 6 -16 8 -20 4 -9 -10 -76 -11 -70 -2 5 9 -23 5 -32
-4 -15 -15 -26 -6 -13 11 12 15 12 16 -1 6 -8 -6 -23 -10 -33 -9 -11 2 -15 -1
-10 -8 4 -7 -1 -6 -10 2 -9 7 -17 10 -17 7 0 -4 -9 -2 -20 4 -41 22 -18 1 33
-31 89 -55 164 -117 311 -258 77 -75 168 -160 201 -190 l60 -53 -60 45 c-33
26 -150 123 -260 217 -219 188 -307 242 -455 279 -153 39 -385 52 -530 31 -35
-5 -66 -8 -68 -6 -1 2 29 11 68 21 53 13 114 18 233 18 110 0 152 3 132 9 -16
5 -42 9 -57 10 -17 1 -25 5 -21 12 4 6 -2 4 -12 -4 -15 -12 -17 -12 -10 -1 6
11 4 13 -8 8 -10 -4 -17 -1 -17 6 0 8 -4 6 -10 -3 -5 -8 -10 -10 -10 -4 0 6
-13 14 -30 18 -76 15 3 44 140 53 88 5 102 3 188 -26 58 -20 112 -31 147 -31
50 0 54 2 47 19 -4 11 -34 39 -67 63 l-60 43 -130 -1 c-99 -1 -148 -7 -205
-23 -92 -26 -98 -26 -76 -2 24 26 164 98 212 110 46 11 227 13 302 4z m1302
-104 c-6 -52 -15 -139 -21 -194 -13 -136 -19 -149 -14 -35 3 93 35 333 42 326
3 -2 -1 -46 -7 -97z m-1395 -39 c4 -6 10 -8 14 -6 12 8 34 -11 26 -23 -5 -8
-11 -9 -19 -2 -7 6 -16 8 -19 4 -4 -3 -7 2 -7 13 0 16 -2 17 -10 4 -9 -13 -10
-13 -10 0 0 13 -1 13 -10 0 -5 -8 -10 -10 -10 -4 0 23 33 34 45 14z m992 -102
c-3 -7 -5 -2 -5 12 0 14 2 19 5 13 2 -7 2 -19 0 -25z m-1482 -319 c-43 -68
-80 -126 -85 -129 -4 -3 -14 -18 -22 -34 -12 -23 -16 -26 -21 -12 -4 10 -3 15
3 11 13 -8 13 1 -1 28 -10 22 -10 22 6 2 15 -19 16 -18 11 18 -2 20 -1 35 4
32 5 -3 10 1 13 7 2 7 7 10 11 7 9 -9 -4 -40 -15 -33 -5 3 -9 0 -9 -5 0 -29
23 -4 55 59 38 75 41 85 23 74 -7 -4 -8 -3 -4 5 4 6 12 8 18 5 7 -5 9 -2 5 8
-6 18 35 62 48 51 4 -5 5 -3 1 4 -6 10 24 37 32 28 2 -1 -31 -58 -73 -126z
m1862 99 c-3 -7 -5 -2 -5 12 0 14 2 19 5 13 2 -7 2 -19 0 -25z m-10 -70 c-3
-8 -6 -5 -6 6 -1 11 2 17 5 13 3 -3 4 -12 1 -19z m-1912 -69 c-5 -25 -15 -38
-15 -20 0 7 -5 9 -12 5 -7 -4 -4 2 6 14 24 27 26 27 21 1z m414 -79 c-39 -126
-102 -377 -140 -560 -20 -102 -38 -179 -38 -172 -1 19 -1 18 -23 74 -12 29
-21 67 -21 83 0 50 23 186 40 229 19 51 196 417 199 413 2 -2 -6 -32 -17 -67z
m1237 -825 c116 -240 158 -299 301 -421 136 -116 280 -225 405 -306 48 -32
183 -123 299 -203 153 -106 214 -143 220 -133 4 7 3 18 -2 24 -7 8 -6 15 2 20
7 4 9 3 5 -4 -3 -6 -2 -13 4 -17 7 -4 7 -13 0 -26 -9 -15 -7 -21 6 -26 10 -4
19 -2 22 5 2 7 8 10 13 6 5 -3 9 2 9 11 0 9 -4 14 -9 10 -5 -3 -12 -2 -15 3
-2 4 6 8 19 8 16 0 21 -4 17 -14 -8 -23 65 31 132 96 40 38 52 46 37 25 -36
-52 -120 -119 -199 -160 -68 -34 -75 -36 -97 -23 -13 8 -147 109 -297 225
-628 483 -706 554 -809 740 -65 117 -161 325 -173 375 -7 28 -12 37 110 -215z
m-1625 128 c-12 -20 -14 -14 -5 12 4 9 9 14 11 11 3 -2 0 -13 -6 -23z m3614
-434 c-27 -11 -77 -38 -110 -60 -50 -33 -54 -34 -25 -9 40 35 145 90 169 89 9
0 -6 -9 -34 -20z m-1977 -61 c-4 -15 24 -18 34 -3 5 6 8 5 8 -3 0 -7 4 -11 9
-7 5 3 12 1 16 -5 4 -6 10 -8 15 -5 4 3 14 -3 21 -12 9 -10 9 -14 2 -10 -7 5
-19 -3 -29 -18 l-17 -26 -14 21 c-14 20 -16 20 -34 4 -10 -9 -20 -14 -20 -11
-1 4 -2 11 -3 16 -3 23 -14 19 -21 -6 -6 -26 -7 -27 -18 -8 -13 24 -16 54 -6
60 4 3 6 -6 4 -20 -1 -14 2 -28 6 -31 5 -3 9 4 9 14 0 11 7 22 15 26 8 3 15 9
14 13 -2 13 1 23 6 23 3 0 4 -5 3 -12z m-497 -35 c13 -16 12 -17 -3 -4 -10 7
-18 15 -18 17 0 8 8 3 21 -13z m94 -33 c-3 -4 3 -14 12 -21 14 -12 15 -11 9
11 -5 19 -4 21 3 9 7 -11 7 -27 -1 -52 -11 -35 -12 -36 -30 -21 -10 10 -15 22
-10 28 11 14 9 47 -3 66 -8 13 -7 13 8 1 9 -7 15 -17 12 -21z m783 18 c-2 -7
2 -12 8 -11 6 1 11 -8 10 -20 -1 -13 4 -21 12 -19 8 1 11 -2 7 -8 -5 -8 -11
-8 -21 1 -7 6 -12 15 -9 19 3 4 -2 13 -10 20 -8 7 -12 16 -9 21 8 13 14 11 12
-3z m-880 -29 c-3 -8 -7 -3 -11 10 -4 17 -3 21 5 13 5 -5 8 -16 6 -23z m863 4
c13 -16 12 -17 -3 -4 -10 7 -18 15 -18 17 0 8 8 3 21 -13z m1376 -43 c-31 -33
-77 -91 -103 -128 -52 -74 -72 -98 -56 -67 36 68 186 255 205 255 5 0 -16 -27
-46 -60z m-1287 25 c5 3 7 -7 4 -22 -6 -33 -14 -43 -14 -19 0 11 -5 15 -12 10
-10 -5 -10 -4 -1 6 6 7 10 18 9 24 -2 6 -1 8 1 3 3 -4 9 -5 13 -2z m-1616 -31
c3 -8 2 -12 -4 -9 -6 3 -10 10 -10 16 0 14 7 11 14 -7z m263 -19 c0 -8 -4 -12
-9 -9 -5 3 -6 10 -3 15 9 13 12 11 12 -6z m563 11 c0 -3 -4 -8 -10 -11 -5 -3
-10 -1 -10 4 0 6 5 11 10 11 6 0 10 -2 10 -4z m-512 -33 c-9 -10 -13 -25 -11
-33 4 -13 3 -13 -6 0 -7 10 -6 19 6 32 21 23 31 23 11 1z m1370 -28 c-3 -3 -9
2 -12 12 -6 14 -5 15 5 6 7 -7 10 -15 7 -18z m42 -18 c10 -20 10 -20 -3 -5 -8
10 -16 16 -19 13 -2 -3 -5 2 -5 10 0 19 14 10 27 -18z m-1481 16 c13 10 14 10
5 -3 -5 -8 -9 -21 -8 -27 5 -34 7 -36 13 -8 l7 30 5 -32 c3 -18 3 -31 0 -28
-2 3 -16 -5 -29 -17 l-25 -23 6 23 c3 12 1 20 -4 16 -5 -3 -9 -12 -9 -21 0
-24 -8 -12 -14 21 -3 16 -2 26 1 22 3 -3 12 2 19 12 9 13 10 21 1 32 -9 12 -9
13 3 3 11 -10 17 -10 29 0z m-44 -12 c3 -5 2 -12 -3 -15 -5 -3 -9 1 -9 9 0 17
3 19 12 6z m2950 -71 c-8 -33 -14 -45 -14 -29 -1 25 18 93 24 87 2 -2 -3 -28
-10 -58z m-3003 32 c-15 -5 -16 -32 -1 -32 5 0 7 5 3 12 -4 6 -3 8 4 4 6 -3
12 -1 15 6 2 7 3 5 2 -4 -2 -10 1 -18 6 -18 5 0 9 -5 9 -11 0 -8 -5 -8 -15 1
-10 8 -15 9 -15 2 0 -6 -7 -9 -15 -6 -9 4 -14 17 -13 34 2 20 6 26 17 22 10
-4 11 -7 3 -10z m-855 -14 c-3 -8 -6 -5 -6 6 -1 11 2 17 5 13 3 -3 4 -12 1
-19z m1751 -120 c-2 -7 2 -12 8 -11 6 1 11 -5 11 -13 0 -12 -4 -11 -18 2 -10
9 -16 21 -13 25 8 13 14 11 12 -3z m2084 -50 c-8 -8 -9 -4 -5 13 4 13 8 18 11
10 2 -7 -1 -18 -6 -23z m-1919 -13 c4 -8 3 -16 -1 -19 -4 -3 -9 4 -9 15 -2 23
3 25 10 4z m-2589 -41 c-3 -18 -1 -23 8 -18 15 9 -25 -48 -46 -65 -10 -9 -16
-9 -21 -1 -5 8 -13 6 -25 -5 -27 -25 -34 -1 -12 42 19 36 20 36 27 13 7 -22 8
-22 18 -4 6 10 12 25 13 32 2 8 6 17 10 20 4 4 4 -1 1 -10 -3 -10 -2 -20 3
-23 10 -6 13 3 13 37 0 10 3 15 8 13 4 -3 6 -17 3 -31z m2557 2 c-9 -10 -7
-16 5 -27 13 -11 15 -10 12 3 -1 9 1 17 6 16 5 0 12 5 16 11 4 7 11 3 17 -12
7 -14 8 -29 2 -38 -7 -12 -9 -12 -9 0 0 11 -4 10 -14 -4 -13 -18 -14 -18 -25
3 -6 12 -15 21 -19 21 -21 -3 -23 3 -7 21 20 22 34 28 16 6z m1449 -197 c0 -6
-4 -7 -10 -4 -5 3 -10 11 -10 16 0 6 5 7 10 4 6 -3 10 -11 10 -16z m-1759 -16
c13 -16 12 -17 -3 -4 -10 7 -18 15 -18 17 0 8 8 3 21 -13z m2050 -11 c0 -15 1
-15 8 1 7 18 7 18 21 0 8 -10 10 -15 5 -10 -4 4 -17 0 -27 -10 -10 -9 -18 -14
-19 -12 -6 23 -4 57 3 53 4 -3 8 -13 9 -22z m-667 -153 c11 17 26 3 20 -17 -5
-16 -5 -16 8 0 13 15 15 15 27 -4 7 -11 15 -17 18 -14 3 3 1 12 -5 19 -9 10
-8 14 3 14 8 0 12 -4 9 -9 -3 -4 0 -8 7 -8 8 0 8 -4 -1 -15 -9 -11 -16 -13
-23 -6 -7 7 -14 7 -23 0 -8 -7 -14 -7 -19 1 -5 8 -11 8 -21 -1 -10 -8 -14 -8
-15 0 -3 26 -4 30 -11 37 -5 4 -8 12 -8 18 0 5 6 2 13 -9 10 -13 16 -15 21 -6z
m128 -11 c-21 -21 -13 -32 10 -12 12 10 18 14 15 7 -4 -6 -3 -14 3 -18 5 -3
11 2 11 12 1 17 2 17 6 0 4 -17 5 -17 17 -1 10 13 15 14 21 4 6 -9 4 -11 -5
-5 -10 6 -12 4 -7 -8 7 -19 -8 -33 -18 -17 -5 8 -11 8 -20 0 -10 -8 -15 -8
-20 0 -5 8 -11 8 -19 1 -9 -8 -13 -6 -13 7 0 17 15 42 25 42 3 0 1 -5 -6 -12z
m-332 -3 c0 -2 -9 -9 -20 -15 -12 -6 -20 -7 -20 -1 0 5 8 12 18 14 9 3 18 5
20 6 1 0 2 -1 2 -4z m469 -2 c14 10 14 10 4 -3 -6 -8 -12 -19 -12 -24 -1 -12
-29 -17 -36 -6 -3 5 -1 11 5 15 6 4 7 12 4 18 -5 9 -3 8 6 0 11 -10 17 -10 29
0z"/>
<path d="M2188 3943 c7 -3 16 -2 19 1 4 3 -2 6 -13 5 -11 0 -14 -3 -6 -6z"/>
<path d="M2228 3933 c7 -3 16 -2 19 1 4 3 -2 6 -13 5 -11 0 -14 -3 -6 -6z"/>
<path d="M2270 3920 c8 -5 20 -10 25 -10 6 0 3 5 -5 10 -8 5 -19 10 -25 10 -5
0 -3 -5 5 -10z"/>
<path d="M2357 3880 c29 -17 63 -30 75 -29 19 1 17 2 -7 8 -16 4 -46 18 -65
29 -19 12 -39 22 -45 22 -5 0 13 -14 42 -30z"/>
<path d="M2358 2823 c7 -3 16 -2 19 1 4 3 -2 6 -13 5 -11 0 -14 -3 -6 -6z"/>
<path d="M2876 2782 c-2 -4 -1 -14 3 -21 6 -10 10 -9 14 3 6 16 -8 32 -17 18z"/>
<path d="M3644 1189 c-2 -4 0 -10 6 -14 6 -4 7 -12 4 -18 -4 -7 1 -4 12 5 16
16 20 16 34 3 15 -14 19 -13 36 6 10 11 14 20 9 19 -6 -2 -12 -1 -15 0 -14 6
-82 5 -86 -1z m80 -20 c-3 -5 -10 -7 -15 -3 -5 3 -7 10 -3 15 3 5 10 7 15 3 5
-3 7 -10 3 -15z"/>
<path d="M3258 1108 c4 -16 2 -19 -8 -13 -9 5 -11 4 -6 -4 4 -6 12 -9 17 -6
12 8 12 32 0 39 -5 4 -7 -4 -3 -16z"/>
<path d="M2704 973 c-15 -24 -15 -26 -1 -14 16 12 22 8 18 -12 -1 -5 3 -6 9
-2 7 4 7 12 0 24 -5 10 -6 21 -3 25 3 3 4 6 1 6 -3 0 -14 -12 -24 -27z"/>
<path d="M1068 687 c-10 -20 -11 -20 -24 -2 -13 18 -20 10 -15 -17 0 -5 -4 -8
-11 -8 -6 0 -9 -3 -5 -6 3 -3 12 -2 19 2 7 5 21 9 32 9 10 0 25 9 32 21 12 18
12 21 -1 21 -9 0 -21 -9 -27 -20z m13 -10 c-10 -9 -11 -8 -5 6 3 10 9 15 12
12 3 -3 0 -11 -7 -18z"/>
<path d="M3693 701 c-1 -21 0 -22 9 -8 5 10 13 15 19 12 5 -3 6 0 3 8 -8 23
-29 15 -31 -12z"/>
<path d="M4740 345 c-7 -9 -8 -15 -2 -15 5 0 12 7 16 15 3 8 4 15 2 15 -2 0
-9 -7 -16 -15z"/>
<path d="M4976 322 c-3 -5 1 -9 9 -9 8 0 12 4 9 9 -3 4 -7 8 -9 8 -2 0 -6 -4
-9 -8z"/>
<path d="M4150 4395 c19 -19 36 -35 39 -35 3 0 -10 16 -29 35 -19 19 -36 35
-39 35 -3 0 10 -16 29 -35z"/>
<path d="M4520 4409 c0 -5 5 -7 10 -4 6 3 10 8 10 11 0 2 -4 4 -10 4 -5 0 -10
-5 -10 -11z"/>
<path d="M4220 4356 c0 -2 8 -10 18 -17 15 -13 16 -12 3 4 -13 16 -21 21 -21
13z"/>
<path d="M4190 4346 c0 -2 8 -10 18 -17 15 -13 16 -12 3 4 -13 16 -21 21 -21
13z"/>
<path d="M4362 4158 c-7 -7 -12 -19 -12 -28 0 -9 -6 -22 -12 -30 -11 -12 -10
-12 2 -3 10 8 21 9 30 3 8 -6 21 -10 29 -10 11 0 10 5 -4 20 -18 20 -18 20 16
14 19 -4 31 -3 27 1 -4 4 3 16 15 26 l22 19 -28 -10 c-19 -7 -35 -7 -47 0 -23
13 -23 13 -38 -2z"/>
<path d="M1103 4150 c-48 -11 -96 -43 -121 -80 -33 -50 -37 -75 -15 -100 15
-15 20 -17 20 -5 0 8 -4 15 -9 15 -4 0 -8 6 -8 13 0 15 40 56 55 56 5 0 11 5
13 13 2 9 0 8 -7 -2 -6 -8 -11 -10 -11 -5 0 6 8 18 18 26 9 9 25 25 34 37 11
14 33 22 70 26 107 12 112 13 53 13 -33 1 -74 -2 -92 -7z m-63 -43 c0 -2 -12
-14 -27 -28 l-28 -24 24 28 c23 25 31 32 31 24z"/>
<path d="M1283 4143 c9 -2 23 -2 30 0 6 3 -1 5 -18 5 -16 0 -22 -2 -12 -5z"/>
<path d="M1343 4133 c9 -2 23 -2 30 0 6 3 -1 5 -18 5 -16 0 -22 -2 -12 -5z"/>
<path d="M1398 4123 c6 -2 18 -2 25 0 6 3 1 5 -13 5 -14 0 -19 -2 -12 -5z"/>
<path d="M1448 4113 c6 -2 18 -2 25 0 6 3 1 5 -13 5 -14 0 -19 -2 -12 -5z"/>
<path d="M1503 4103 c9 -2 23 -2 30 0 6 3 -1 5 -18 5 -16 0 -22 -2 -12 -5z"/>
<path d="M4592 4093 c-52 -18 -51 -27 1 -12 35 9 40 7 92 -32 30 -23 55 -46
55 -51 0 -6 -8 -4 -17 3 -15 13 -15 11 1 -13 20 -31 15 -45 -42 -118 -31 -39
-32 -41 -8 -20 41 36 96 125 95 152 -1 20 -2 21 -6 3 -11 -45 -19 -32 -15 21
4 47 2 60 -14 71 -23 17 -88 15 -142 -4z"/>
<path d="M4756 4097 c3 -10 9 -15 12 -12 3 3 0 11 -7 18 -10 9 -11 8 -5 -6z"/>
<path d="M1558 4093 c7 -3 16 -2 19 1 4 3 -2 6 -13 5 -11 0 -14 -3 -6 -6z"/>
<path d="M4488 4049 c-21 -11 -38 -22 -38 -24 0 -5 79 32 89 41 12 11 -18 1
-51 -17z"/>
<path d="M4630 4066 c0 -2 8 -10 18 -17 15 -13 16 -12 3 4 -13 16 -21 21 -21
13z"/>
<path d="M1536 4024 c-4 -14 -5 -28 -3 -31 3 -2 8 8 11 23 4 14 5 28 3 31 -3
2 -8 -8 -11 -23z"/>
<path d="M4670 4036 c0 -2 8 -10 18 -17 15 -13 16 -12 3 4 -13 16 -21 21 -21
13z"/>
<path d="M4337 3965 c-55 -26 -75 -41 -34 -26 38 15 87 41 87 46 0 6 4 8 -53
-20z"/>
<path d="M1521 3973 c-1 -6 -4 -20 -7 -30 -5 -17 -5 -17 6 0 6 10 9 23 6 30
-3 9 -5 9 -5 0z"/>
<path d="M4205 3930 c3 -6 20 -10 37 -10 38 0 34 5 -10 13 -21 4 -31 3 -27 -3z"/>
<path d="M4613 3808 c-11 -13 -24 -30 -28 -38 -8 -16 -6 -14 34 33 14 15 22
27 19 27 -2 0 -14 -10 -25 -22z"/>
<path d="M4141 3720 c-19 -16 -32 -32 -30 -35 3 -2 21 11 39 30 41 42 37 45
-9 5z"/>
<path d="M4115 3730 c-16 -7 -17 -9 -3 -9 9 -1 20 4 23 9 7 11 7 11 -20 0z"/>
<path d="M4705 3669 c-4 -6 -5 -12 -2 -15 2 -3 7 2 10 11 7 17 1 20 -8 4z"/>
<path d="M1498 3652 c-14 -6 -12 -10 10 -27 23 -16 25 -16 13 -1 -13 15 -13
19 0 27 16 10 2 11 -23 1z"/>
<path d="M2055 3572 c-20 -17 -93 -34 -116 -27 -18 5 -21 4 -9 -4 8 -6 25 -11
36 -11 26 0 90 26 99 40 7 12 2 13 -10 2z"/>
<path d="M4480 3538 c-15 -21 -17 -28 -6 -19 16 13 41 51 33 51 -2 0 -14 -15
-27 -32z"/>
<path d="M4193 3533 c-13 -2 -23 -8 -23 -13 0 -6 11 -5 26 0 38 15 67 12 115
-10 24 -11 60 -19 79 -19 32 1 31 2 -11 9 -25 4 -60 15 -77 24 -30 15 -62 18
-109 9z"/>
<path d="M4181 3464 c0 -11 3 -14 6 -6 3 7 2 16 -1 19 -3 4 -6 -2 -5 -13z"/>
<path d="M4120 3417 c0 -2 15 -16 33 -33 l32 -29 -29 33 c-28 30 -36 37 -36
29z"/>
<path d="M4250 3296 c30 -31 64 -62 75 -68 11 -6 18 -9 15 -6 -3 2 -36 33 -75
68 l-70 64 55 -58z"/>
<path d="M4570 2975 c30 -30 57 -55 59 -55 3 0 -19 25 -49 55 -30 30 -57 55
-59 55 -3 0 19 -25 49 -55z"/>
<path d="M4721 2809 c97 -112 156 -189 163 -214 3 -11 3 7 0 40 -6 80 -29 162
-51 187 -15 17 -27 19 -71 16 -32 -3 -56 0 -60 6 -4 6 -18 20 -31 31 -14 11 9
-19 50 -66z m148 -143 c-3 -3 -22 16 -44 42 l-38 47 44 -42 c23 -23 41 -45 38
-47z"/>
<path d="M2460 2680 c0 -5 5 -10 11 -10 5 0 7 5 4 10 -3 6 -8 10 -11 10 -2 0
-4 -4 -4 -10z"/>
<path d="M4911 2584 c0 -25 5 -46 13 -54 8 -6 16 -26 18 -43 l4 -32 8 38 c7
32 5 42 -12 60 -11 12 -22 33 -25 47 -3 17 -5 11 -6 -16z"/>
<path d="M4432 2533 c9 -10 21 -44 28 -76 11 -53 13 -57 36 -51 13 3 47 9 76
13 l52 6 -45 29 c-78 52 -164 98 -147 79z m102 -68 c11 -8 15 -15 9 -15 -7 0
-15 5 -18 10 -4 6 -11 8 -16 5 -5 -4 -9 -1 -9 4 0 15 11 13 34 -4z"/>
<path d="M4863 2437 c-6 -13 -26 -33 -44 -46 l-34 -23 45 -47 c25 -25 54 -57
63 -71 10 -14 15 -18 11 -10 -4 8 -18 30 -31 48 -24 32 -24 34 -7 53 18 20 18
20 -8 10 -22 -8 -26 -7 -22 4 4 10 -1 12 -18 8 -19 -5 -15 2 20 34 23 22 42
45 42 51 0 18 -6 14 -17 -11z"/>
<path d="M5147 2409 c4 -13 8 -18 11 -10 2 7 -1 18 -6 23 -8 8 -9 4 -5 -13z"/>
<path d="M4695 2400 c27 -12 43 -12 25 0 -8 5 -22 9 -30 9 -10 0 -8 -3 5 -9z"/>
<path d="M4740 2386 c0 -2 7 -7 16 -10 8 -3 12 -2 9 4 -6 10 -25 14 -25 6z"/>
<path d="M5152 2360 c0 -14 2 -19 5 -12 2 6 2 18 0 25 -3 6 -5 1 -5 -13z"/>
<path d="M5210 2315 c0 -5 5 -17 10 -25 5 -8 10 -10 10 -5 0 6 -5 17 -10 25
-5 8 -10 11 -10 5z"/>
<path d="M4872 2199 c6 -16 12 -28 14 -26 5 5 -13 57 -20 57 -3 0 0 -14 6 -31z"/>
<path d="M5122 2199 c-16 -20 -21 -36 -17 -50 4 -13 1 -27 -11 -40 -18 -20
-54 -26 -54 -8 0 6 -12 1 -27 -10 -36 -29 -42 -18 -7 12 16 14 44 47 62 73
l33 49 -38 -43 c-22 -24 -51 -49 -66 -57 -29 -15 -30 -14 -55 35 -7 14 -10 16
-6 5 15 -50 21 -135 13 -186 -9 -59 -50 -162 -68 -174 -27 -16 -5 -57 64 -115
32 -27 29 -23 -12 21 -29 30 -53 58 -53 62 0 12 73 -34 128 -80 36 -31 51 -51
48 -62 -4 -9 5 -4 18 11 13 15 26 32 28 39 3 8 12 7 36 -5 31 -16 31 -16 47
14 12 23 14 46 9 93 -6 62 -5 66 30 117 52 76 54 91 16 150 l-32 50 -55 0 -55
0 29 38 c17 20 33 44 37 52 4 8 -2 3 -14 -13 -29 -36 -46 -24 -19 14 28 39 21
45 -9 8z m-9 -459 c66 -52 79 -85 20 -49 -103 61 -122 75 -127 92 -2 11 -9 16
-15 12 -7 -4 -8 0 -4 11 4 10 2 15 -4 11 -5 -3 -10 0 -10 7 0 16 53 -16 140
-84z"/>
<path d="M5632 2180 c-9 -16 -24 -30 -33 -30 -8 0 -24 -7 -35 -14 -17 -13 -15
-14 17 -3 40 14 73 37 64 45 -3 3 0 11 6 19 6 7 8 13 5 13 -4 0 -15 -13 -24
-30z"/>
<path d="M5589 2179 l-24 -20 28 17 c15 9 27 18 27 20 0 8 -8 4 -31 -17z"/>
<path d="M4873 1903 c-15 -32 -61 -88 -73 -88 -5 0 -12 -4 -17 -9 -5 -5 -3 -6
5 -2 6 4 12 5 12 1 0 -3 -10 -10 -22 -15 -39 -17 -113 -62 -120 -74 -5 -7 -8
-7 -8 2 0 7 -5 10 -11 6 -7 -4 -6 -11 4 -22 36 -35 177 70 229 171 10 21 18
43 16 48 -2 5 -9 -3 -15 -18z"/>
<path d="M1593 1785 c0 -8 4 -12 9 -9 5 3 6 10 3 15 -9 13 -12 11 -12 -6z"/>
<path d="M3546 1423 c-6 -14 -5 -15 5 -6 7 7 10 15 7 18 -3 3 -9 -2 -12 -12z"/>
<path d="M3176 1124 c-8 -22 1 -31 16 -16 9 9 9 15 1 23 -7 7 -12 5 -17 -7z"/>
<path d="M2887 1098 c-4 -12 -2 -27 3 -33 6 -7 8 -15 5 -18 -3 -4 -2 -5 2 -2
11 9 12 36 2 29 -6 -3 -7 5 -3 20 3 14 4 26 1 26 -2 0 -7 -10 -10 -22z"/>
<path d="M3295 1021 c-3 -5 -2 -12 3 -15 5 -3 9 1 9 9 0 17 -3 19 -12 6z"/>
<path d="M2820 997 c0 -11 1 -18 3 -16 1 2 8 11 15 20 9 13 9 16 -3 16 -8 0
-15 -9 -15 -20z"/>
<path d="M2540 981 c-8 -6 -19 -7 -25 -4 -5 3 5 -10 23 -29 18 -19 30 -37 27
-41 -3 -4 -2 -5 2 -2 4 3 8 15 10 27 2 12 8 27 14 34 6 8 6 14 0 18 -5 4 -12
-2 -14 -11 -4 -17 -5 -17 -6 0 -1 19 -9 21 -31 8z m30 -40 c0 -11 -5 -10 -20
4 -15 14 -17 20 -8 26 13 8 28 -7 28 -30z"/>
<path d="M2282 665 c0 -16 2 -22 5 -12 2 9 2 23 0 30 -3 6 -5 -1 -5 -18z"/>
<path d="M3740 661 c0 -6 4 -13 10 -16 6 -3 7 1 4 9 -7 18 -14 21 -14 7z"/>
<path d="M2292 605 c0 -16 2 -22 5 -12 2 9 2 23 0 30 -3 6 -5 -1 -5 -18z"/>
<path d="M5131 586 c-10 -11 -9 -14 1 -12 14 2 23 15 15 22 -2 2 -10 -2 -16
-10z"/>
<path d="M3376 581 c-7 -11 4 -43 18 -53 7 -4 -6 -25 -34 -53 -24 -25 -41 -46
-37 -46 4 -1 13 -2 20 -3 6 -1 11 -8 9 -15 -1 -7 2 -10 7 -7 9 6 26 -11 26
-26 0 -3 3 -9 6 -13 4 -3 5 8 4 25 -1 17 1 33 6 36 8 5 14 -18 10 -39 -1 -5 3
-6 8 -2 7 3 7 15 1 30 -6 15 -6 27 0 30 9 6 14 -8 11 -28 -1 -5 3 -6 9 -2 11
7 -2 39 -20 50 -5 3 -7 12 -4 20 4 8 10 12 15 9 5 -3 6 3 2 12 -5 14 -9 12
-22 -12 -8 -16 -16 -33 -16 -39 -1 -5 -7 -9 -14 -7 -7 1 -10 -2 -7 -7 7 -11
-20 -9 -31 3 -4 4 -1 6 7 4 8 -1 14 3 13 10 -2 6 3 11 10 10 6 -2 11 3 9 10
-1 8 2 11 7 8 9 -6 21 26 21 60 0 25 -25 50 -34 35z m22 -32 c-3 -8 -7 -3 -11
10 -4 17 -3 21 5 13 5 -5 8 -16 6 -23z m3 -113 c-12 -12 -18 -26 -14 -29 3 -4
4 -7 1 -7 -3 0 -12 8 -19 18 -7 9 -9 14 -4 9 11 -9 46 23 38 36 -4 6 -1 7 6 2
9 -5 7 -13 -8 -29z"/>
<path d="M5304 551 c1 -15 8 -25 15 -23 9 2 11 -3 8 -13 -11 -28 2 -15 18 18
12 24 12 28 2 14 -13 -16 -15 -16 -21 -1 -3 9 -4 19 -1 23 2 4 -2 8 -10 8 -9
0 -13 -10 -11 -26z"/>
<path d="M2302 545 c0 -16 2 -22 5 -12 2 9 2 23 0 30 -3 6 -5 -1 -5 -18z"/>
<path d="M2312 480 c0 -14 2 -19 5 -12 2 6 2 18 0 25 -3 6 -5 1 -5 -13z"/>
<path d="M5399 413 c-13 -16 -12 -17 4 -4 9 7 17 15 17 17 0 8 -8 3 -21 -13z"/>
<path d="M5045 309 c-4 -6 -5 -12 -2 -15 2 -3 7 2 10 11 7 17 1 20 -8 4z"/>
<path d="M5017 295 c-4 -8 -3 -16 1 -19 4 -3 9 4 9 15 2 23 -3 25 -10 4z"/>
<path d="M5297 299 c7 -7 15 -10 18 -7 3 3 -2 9 -12 12 -14 6 -15 5 -6 -5z"/>
<path d="M5328 265 c-6 -30 -2 -32 12 -6 6 11 6 22 1 25 -5 3 -11 -5 -13 -19z"/>
<path d="M4085 200 c10 -11 20 -20 23 -20 3 0 -3 9 -13 20 -10 11 -20 20 -23
20 -3 0 3 -9 13 -20z"/>
</g>
</svg>
